<svg width="40" height="40" version="1.1" viewBox="0 0 40 40" xml:space="preserve" xmlns="http://www.w3.org/2000/svg">
<path d="m38 33c0 2.762-2.238 5-5 5h-26c-2.761 0-5-2.238-5-5v-26c0-2.762 2.239-5 5-5h26c2.762 0 5 2.238 5 5z" fill="#673ab7"/>
<path d="m29.03 21.6c-0.65-0.9-1.59-1.52-2.8-1.85 0 0 1.02-0.37 1.94-1.75 0.55-0.88 0.83-1.94 0.83-3.18 0-2.15-0.78-3.8-2.34-4.93-1.56-1.13-3.32-1.89-6.31-1.89h-9.35v24h10.43c2.83-0.02 4.96-0.63 6.41-1.8 1.44-1.19 2.16-2.95 2.16-5.3 0-1.3-0.32-2.4-0.97-3.3zm-12.03-9.6h4.25c1.52 0 2.75 1.23 2.75 2.75s-1.23 2.75-2.75 2.75h-4.25zm5 16h-5v-6h5c1.66 0 3 1.34 3 3s-1.34 3-3 3z" fill="#fff"/>
</svg>
