<svg width="36" height="38" version="1.1" viewBox="0 0 36 38" xmlns="http://www.w3.org/2000/svg">
 <g transform="matrix(1.0588 0 0 1 -7.4118 -5)">
  <path d="m41 5h-34l3 34 14 4 14-4z" fill="#0277bd"/>
  <path d="m24 8v31.898l11.199-3.1992 2.5-28.699z" fill="#039be5"/>
  <path d="m33.102 13h-9.1016v4h4.8984l-0.29688 4h-4.6016v4h4.3984l-0.29688 4.5-4.1016 1.3984v4.2031l7.8984-2.6016 0.70312-11.5z" fill="#fff"/>
  <path d="m24 13v4h-8.8984l-0.30078-4zm-4.6016 8 0.20312 4h4.3984v-4zm0.40234 6h-4l0.30078 5.5 7.8984 2.6016v-4.2031l-4.1016-1.3984z" fill="#eee"/>
 </g>
</svg>
