<svg width="40" height="40" version="1.1" xmlns="http://www.w3.org/2000/svg">
 <path d="m38.132 17.966-16.303-16.302c-0.499-0.5-1.197-0.8-1.897-0.8s-1.398 0.3-1.898 0.8l-3.5 3.5 4.097 4.098c0.403-0.199 0.801-0.296 1.301-0.296 1.7 0 3 1.296 3 3 0 0.5-0.102 0.898-0.3 1.296l4 4c0.402-0.199 0.8-0.296 1.3-0.296 1.7 0 3 1.296 3 3 0 1.699-1.3 3-3 3s-3-1.301-3-3c0-0.5 0.102-0.903 0.3-1.301l-4-4c-0.1 0-0.198 0.097-0.3 0.097v10.403c1.2 0.398 2 1.5 2 2.8 0 1.7-1.3 3-3 3s-3-1.3-3-3c0-1.3 0.8-2.402 2-2.8v-10.501c-1.2-0.403-2-1.5-2-2.801 0-0.5 0.102-0.898 0.3-1.3l-4.1-4.098-11.4 11.5c-0.5 0.501-0.8 1.199-0.8 1.899s0.3 1.398 0.8 1.898l16.303 16.302c0.5 0.5 1.199 0.801 1.898 0.801 0.7 0 1.398-0.3 1.898-0.8l16.301-16.304c0.5-0.5 0.801-1.199 0.801-1.898 0-0.7-0.3-1.398-0.8-1.898z" fill="#f4511e"/>
</svg>
