<svg width="36" height="38" version="1.1" viewBox="0 0 36 38" xmlns="http://www.w3.org/2000/svg">
 <g transform="matrix(1.0588 0 0 1 -7.4118 -5)">
  <path d="m41 5h-34l3 34 14 4 14-4z" fill="#e65100"/>
  <path d="m24 8v31.898l11.199-3.1992 2.5-28.699z" fill="#ff6d00"/>
  <path d="m24 25v-4h8.6016l-0.70312 11.5-7.8984 2.6016v-4.2031l4.1016-1.3984 0.29688-4.5zm8.8984-8 0.30078-4h-9.1992v4z" fill="#fff"/>
  <path d="m24 30.898v4.2031l-7.8984-2.6016-0.40234-5.5h4l0.19922 2.5zm-4.8984-13.898h4.8984v-4h-9.1016l0.70312 12h8.3984v-4h-4.6016z" fill="#eee"/>
 </g>
</svg>
