<svg xmlns="http://www.w3.org/2000/svg" width="38" height="38" fill="#2980b9">
  <path d="M23.203.008a.978.978 0 0 0-.27.08c-.742.368-1.585 1.461-1.748 1.677a7.744 7.742 0 0 0-1.322 4.27 8.53 8.528 0 0 0 .665 3.36c1.052 2.528 3.24 4.62 5.84 5.597l.324.115c.014.006.142.048.162.051l.095.034c.134.043.273.087.408.115.685.138 1.353.216 1.98.236.109 0 .217.003.325.003 4.733 0 6.569-3.34 7.18-4.453.06-.108.104-.196.145-.25 0-.003 0-.003.003-.006a.864.864 0 0 0-1.427-.972h-.003c-1.262 1.859-3.422 2.423-6.415 1.68a6.16 6.16 0 0 1-.681-.22 8.255 8.254 0 0 1-.83-.347 8.702 8.702 0 0 1-1.461-.914c-2.632-2.041-3.662-6.287-2.123-8.74a.864.864 0 0 0-.846-1.316zm-7.653 1.72a.846.845 0 0 0-.557.196c-1.305 1.062-2.641 2.803-2.699 2.874a.227.227 0 0 1-.023.037c-2.362 3.438-2.54 8.33-.452 12.462.326.654.698 1.279 1.093 1.852l.118.168c.334.49.708 1.043 1.188 1.475.165.189.344.371.519.546l.084.088.071.071c.18.172.361.347.55.516h.004c.013.02.034.034.05.05.213.19.429.369.715.594l.078.058a14.379 14.376 0 0 0 .752.563c.082.054.163.104.244.162l.08.054.095.06c.172.115.34.22.58.359.156.094.32.188.43.241.046.028.097.055.215.119l.263.138.088.04c.173.089.35.173.53.254l.273.121c.179.078.361.152.583.237l.102.036c.006.007.091.038.098.041.161.058.327.115.492.17l.379.124c.188.064.407.138.647.178a20.869 20.865 0 0 0 3.405.297c.128 0 .256-.003.381-.003 9.536-.209 12.016-8.309 12.04-8.39a.867.867 0 0 0-.46-1.025.864.864 0 0 0-1.082.296c-2.416 3.529-6.985 5.02-11.638 3.792a10.093 10.093 0 0 1-.685-.199 2.312 2.311 0 0 1-.152-.054 7.855 7.853 0 0 1-.47-.161l-.239-.092a10.913 10.913 0 0 1-.445-.181l-.112-.052c-.206-.086-.404-.185-.583-.273l-.492-.256c-.113-.054-.21-.114-.362-.206l-.084-.047-.085-.05a5.6 5.598 0 0 1-.364-.233l-.08-.05a1.192 1.192 0 0 1-.082-.058l-.293-.189a17.074 17.074 0 0 1-.655-.492l-.095-.078c-2.226-1.779-3.873-4.154-4.646-6.7-.718-2.338-.185-5.397 1.427-8.184a.86.86 0 0 0-.188-1.09.85.85 0 0 0-.55-.206zm-9.504 2.59a.871.871 0 0 0-.58.224c-1.65 1.48-2.885 3.4-3.02 3.62-3.53 5.138-2.848 13.123-.425 18.004.046.101.097.199.148.297l.034.054c.043.097.095.198.111.22a.836.836 0 0 0 .084.155c.04.083.081.158.156.286l.276.475.095.156.169.27.134.216c.04.064.082.12.108.155a10.74 10.74 0 0 0 .44.641l.054.074c.12.176.246.344.357.482l.492.625c.007.006.061.07.064.077l.071.08c.149.183.308.365.467.54.023.028.046.051.07.078.152.166.307.33.469.503l.155.148c.128.135.257.267.391.392 0 .003.064.064.064.064l.135.125c.163.155.331.31.46.418.007.01.128.115.138.122.158.141.317.276.48.408l.826.654c.138.102.28.203.441.321.055.04.113.08.17.117a.58.58 0 0 0 .067.051l.621.415c.226.148.452.287.728.452l.149.084c.173.102.347.203.513.29.098.055.195.102.28.145.118.065.246.136.442.23a15.894 15.891 0 0 0 .816.385c0 .003.082.04.082.04a36.416 36.408 0 0 0 .85.35c.209.082.428.163.607.227l.125.05a32.05 32.043 0 0 0 .89.288l.173.053c.21.064.418.132.644.176 1.607.293 3.175.445 4.66.445h.004c12.373 0 16.314-9.955 16.354-10.057a.864.864 0 0 0-1.498-.829c-3.175 4.18-9.165 5.731-16.021 4.156a9.177 9.175 0 0 1-.5-.138l-.323-.098a18.399 18.395 0 0 1-.652-.216 13.79 13.79 0 0 1-.644-.24l-.19-.074a16.69 16.69 0 0 1-.62-.263l-.118-.05c-.182-.085-.357-.166-.533-.254a3.64 3.64 0 0 0-.165-.077 12.68 12.68 0 0 1-.398-.21l-.705-.377a2.417 2.416 0 0 0-.216-.128c-.213-.132-.432-.264-.648-.402-.051-.03-.095-.064-.179-.12a14.142 14.142 0 0 1-.506-.342l-.085-.06c-.145-.102-.287-.21-.404-.298-.074-.053-.149-.114-.27-.205-.108-.085-.216-.166-.317-.246l-.19-.156c-.158-.128-.306-.263-.462-.394a.44.44 0 0 0-.06-.051c-.173-.158-.348-.317-.557-.516l-.611-.607a18.064 18.06 0 0 1-.466-.492 24.686 24.686 0 0 1-.502-.581l-.365-.445a2.307 2.307 0 0 0-.148-.196c-.125-.169-.25-.335-.374-.51-3.36-4.629-4.24-14.29-1.62-17.828a.864.864 0 0 0-.693-1.376z"/>
</svg>
