<svg width="36" height="39" version="1.1" viewBox="0 0 36 39" xmlns="http://www.w3.org/2000/svg">
 <g stroke-width=".13708">
  <path d="m3.3417 35.065-3.3417-35.065 36 0.013845-3.3136 35.024-14.714 3.9618zm26.635-1.9139 2.794-30.033h-14.743l0.11235 33.124zm-13.325-25.629h-3.5803l-0.04216 17.974-6.9501-1.8067 0.01399 4.1087 10.558 2.7169z" fill="#d4b830"/>
  <path d="m15.473 30.18c-0.46334-0.13379-2.7519-0.72264-5.0827-1.325l-4.2262-1.084v-2.0208c0-1.9808 0-2.0209 0.21061-1.954 0.11233 0.04096 1.6568 0.44172 3.4259 0.91012l3.2153 0.84316 0.02806-8.9669 0.02809-8.967h3.5101v11.403c0 9.0606-0.02807 11.403-0.12637 11.403-0.07015-0.0134-0.51948-0.12041-0.98283-0.24091z" fill="none" opacity=".986"/>
  <path d="m6.0936 27.798-0.013992-4.1087s4.4368 1.1912 6.9501 1.8067l0.04216-17.961h3.5803v22.98z" fill="#ebebeb" fill-opacity=".922" opacity=".986"/>
  <path d="m18.028 3.105h14.743l-2.794 30.033-11.949 3.0916zm11.19 25 0.96881-11.229-7.1607 0.76295v-5.9959l7.6381-0.0264 0.30888-4.0953-11.527 0.054013 0.15445 14.909 6.9641-1.1376-0.09825 3.319-7.0203 1.78 0.07017 4.0687z" fill="#fdd83c"/>
 </g>
</svg>
