<svg width="66" height="50" preserveAspectRatio="xMidYMid" version="1.1" xmlns="http://www.w3.org/2000/svg">
 <path d="m56.831 28.743c-2.3023 0.0123-4.3035 0.57235-5.9791 1.4004-0.61505-1.2301-1.2298-2.326-1.3381-3.1297-0.12072-0.93752-0.26519-1.51-0.12072-2.6305 0.14479-1.1204 0.79567-2.7158 0.78354-2.8374-0.01232-0.1217-0.14472-0.6941-1.4707-0.70627-1.326-0.0124-2.4712 0.25585-2.6039 0.60886-0.13271 0.35304-0.38574 1.157-0.55455 1.9848-0.22907 1.2181-2.6519 5.5653-4.0382 7.8426-0.44625-0.88873-0.83195-1.6683-0.91648-2.2894-0.12048-0.93759-0.26527-1.51-0.12048-2.6303 0.1448-1.1204 0.79576-2.7157 0.78362-2.8375-0.01228-0.12174-0.14484-0.69421-1.4708-0.70618-1.3262-0.0122-2.4715 0.25559-2.6039 0.60877-0.13259 0.35327-0.27738 1.1812-0.55454 1.985-0.27738 0.80398-3.496 8.0619-4.3398 9.937a55.512 56.078 0 0 1-1.0729 2.2531s-0.01227 0.037-0.04832 0.0973a30.447 30.757 0 0 1-0.36143 0.69415v0.0122c-0.18093 0.32887-0.37382 0.63312-0.47027 0.63312-0.0724 0-0.20499-0.87665 0.02429-2.0702 0.48215-2.5207 1.6274-6.442 1.6155-6.5759 0-0.0739 0.21691-0.755-0.7474-1.1085-0.94053-0.35296-1.2779 0.23159-1.3624 0.23159-0.08432 0-0.14477 0.2071-0.14477 0.2071s1.0491-4.4086-2.001-4.4086c-1.9045 0-4.5327 2.1069-5.8347 4.0066a1620.9 1637.5 0 0 0-4.4363 2.4477c-0.71094 0.40214-1.4464 0.80395-2.1336 1.1813-0.04837-0.0471-0.09645-0.10993-0.14478-0.15831-3.6891-3.9823-10.512-6.7954-10.223-12.142 0.10858-1.9484 0.77144-7.0631 13.104-13.274 10.15-5.0539 18.227-3.6535 19.626-0.54825 2.001 4.433-4.3278 12.665-14.816 13.859-4.0022 0.45069-6.0999-1.1082-6.6301-1.6926-0.55453-0.60906-0.63908-0.64564-0.84408-0.52375-0.33738 0.18283-0.12046 0.73084 0 1.0474 0.31357 0.82798 1.6034 2.2892 3.7853 3.0081 1.9289 0.63285 6.6182 0.98628 12.296-1.23 6.353-2.4845 11.32-9.3894 9.8612-15.174-1.4588-5.8697-11.103-7.806-20.229-4.5303-5.4246 1.9488-11.308 5.0174-15.539 9.0118-5.027 4.7493-5.8228 8.8775-5.4973 10.607 1.1696 6.1374 9.5479 10.132 12.899 13.091-0.16883 0.0973-0.32575 0.18268-0.45812 0.2559-1.6758 0.84027-8.0649 4.2133-9.6562 7.7815-1.8081 4.043 0.28955 6.9417 1.6758 7.3309 4.3037 1.2059 8.7278-0.96193 11.103-4.5422 2.3748-3.5803 2.0855-8.2324 0.98862-10.363-0.01221-0.025-0.02407-0.0475-0.04837-0.0735 0.43406-0.25555 0.88002-0.52361 1.3141-0.77932a64.097 64.75 0 0 1 2.4232-1.3761c-0.41002 1.1324-0.71147 2.4843-0.85598 4.4328-0.18098 2.2895 0.74715 5.2607 1.9648 6.4296 0.54263 0.51186 1.1815 0.52399 1.5915 0.52399 1.4224 0 2.0615-1.1936 2.7727-2.6061 0.86786-1.7292 1.6515-3.7385 1.6515-3.7385s-0.97645 5.4313 1.6758 5.4313c0.96429 0 1.9407-1.2666 2.3748-1.912v0.0122s0.02423-0.0363 0.0724-0.12158c0.09643-0.15838 0.15667-0.25601 0.15667-0.25601v-0.0249c0.38572-0.68224 1.2538-2.2288 2.5436-4.7984 1.6636-3.3122 3.267-7.4527 3.267-7.4527s0.14476 1.0106 0.6388 2.6913c0.28954 0.98634 0.89194 2.0702 1.3744 3.1174-0.38572 0.54821-0.62696 0.85252-0.62696 0.85252l0.01236 0.0122c-0.31356 0.41403-0.65093 0.86443-1.0248 1.3032-1.3141 1.5829-2.881 3.3978-3.0982 3.921-0.25333 0.621-0.19283 1.0718 0.28956 1.4372 0.34954 0.26791 0.97626 0.30431 1.6153 0.26791 1.1815-0.0854 2.0131-0.37752 2.4229-0.56019 0.63906-0.23128 1.3864-0.58476 2.0855-1.1082 1.29-0.9623 2.0734-2.3383 2.0012-4.1526-0.03615-0.99869-0.36166-1.9973-0.75954-2.9352 0.12072-0.17024 0.22903-0.3408 0.34979-0.51133 2.0372-3.0081 3.6165-6.3084 3.6165-6.3084s0.14478 1.0107 0.63878 2.6915c0.24122 0.85249 0.73554 1.778 1.1693 2.679-1.9167 1.5711-3.0982 3.3978-3.52 4.5912-0.7593 2.2165-0.16883 3.2148 0.95238 3.4463 0.50622 0.10969 1.2295-0.13396 1.76-0.36535 0.67504-0.21911 1.4707-0.59646 2.2303-1.157 1.2901-0.96185 2.5315-2.3015 2.459-4.1158-0.0361-0.82824-0.25304-1.6443-0.55448-2.4358 1.6274-0.68151 3.725-1.0593 6.4011-0.74278 5.7385 0.68193 6.8716 4.2987 6.6544 5.8213-0.21679 1.522-1.4223 2.3502-1.8199 2.6059-0.3982 0.25595-0.53045 0.34106-0.4943 0.52353 0.04765 0.268 0.241 0.25599 0.57851 0.20719 0.47024-0.0852 3.0139-1.2301 3.1223-4.031 0.1809-3.5802-3.1947-7.4893-9.1619-7.4527zm-44.266 15.076c-1.9048 2.0945-4.5568 2.8861-5.702 2.2165-1.2295-0.71871-0.74739-3.812 1.5912-6.0283 1.4224-1.3516 3.2548-2.6062 4.4725-3.3732 0.27716-0.17053 0.68716-0.41388 1.1815-0.71847 0.0843-0.0476 0.13264-0.0736 0.13264-0.0736l0.28928-0.1829c0.85572 3.1665 0.03622 5.9554-1.965 8.1595zm13.863-9.5231c-0.66313 1.6318-2.0493 5.809-2.8932 5.5776-0.72336-0.19493-1.1696-3.3613-0.14478-6.4909 0.51836-1.5711 1.6153-3.4465 2.2544-4.177 1.0367-1.1692 2.1819-1.5591 2.4591-1.0838 0.34977 0.62095-1.2657 5.151-1.6755 6.1741zm11.44 5.5284c-0.27738 0.14657-0.54237 0.24387-0.66312 0.17081-0.08429-0.0478 0.12075-0.24366 0.12075-0.24366s1.4345-1.5587 2.0009-2.265c0.32578-0.41405 0.71124-0.901 1.1212-1.4493v0.15832c0 1.8633-1.7843 3.1177-2.5801 3.6288zm8.8242-2.0334c-0.20498-0.14627-0.16883-0.63334 0.51836-2.1557 0.2652-0.5967 0.89189-1.5951 1.965-2.5572 0.1205 0.38965 0.20503 0.76729 0.1929 1.1205-0.01241 2.3504-1.6756 3.227-2.6763 3.5925z" fill="#cd6799" stroke-width=".25984"/>
</svg>
