<svg xmlns="http://www.w3.org/2000/svg" width="64" height="64" version="1">
  <path d="M7 4h50c1.662 0 3 1.338 3 3v43.17133l-4.80364 5.0819c-1.14168 1.2078-4.22304.18795-5.18348 1.54434L47.7453 60H7c-1.662 0-3-1.338-3-3V7c0-1.662 1.338-3 3-3z" opacity=".2"/>
  <path fill="#666" d="M60 31v18.73464l-4.22138 4.51858c-1.1346 1.21447-2.24487.67712-3.4367 1.83548L49.34652 59H30V31z"/>
  <path fill="#8c8c8c" d="M4 29v27c0 1.662 1.338 3 3 3h25V29z"/>
  <path fill="#a6a6a6" d="M7 3C5.338 3 4 4.338 4 6v25h30V3z"/>
  <path fill="#595959" d="M57 3c1.662 0 3 1.338 3 3v25H32V3z"/>
  <path fill="#fff" d="M7 3C5.338 3 4 4.338 4 6v1c0-1.662 1.338-3 3-3h50c1.662 0 3 1.338 3 3V6c0-1.662-1.338-3-3-3H7z" opacity=".2"/>
  <circle cx="46" cy="47" r="16" opacity=".2"/>
  <circle cx="46" cy="46" r="16" fill="#07ce8e"/>
  <path d="M18 13v6h-6v2h6v6h2v-6h6v-2h-6v-6zm22 6v2h12v-2zM12.47656 40L11 41.47852 16.52344 47 11 52.52148 12.47656 54l5.52149-5.52344L23.52148 54 25 52.52148 19.4746 47 25 41.47852 23.52148 40l-5.52343 5.52344z" opacity=".2"/>
  <path fill="#fff" d="M18 12v6h-6v2h6v6h2v-6h6v-2h-6v-6h-2zm22 6v2h12v-2H40zM12.47656 39L11 40.47852 16.52344 46 11 51.52148 12.47656 53l5.52149-5.52344L23.52148 53 25 51.52148 19.4746 46 25 40.47852 23.52148 39l-5.52343 5.52344L12.47656 39zM40 42v2h12v-2zm0 6v2h12v-2z"/>
</svg>
