<svg width="64" height="64" xmlns="http://www.w3.org/2000/svg"><path d="M6.98 21.522a3.22 2.781 75 0 0-1.852 3.83l8.89 33.176a3.22 2.781 75 0 0 3.519 2.39C26.9 58.41 32.176 47.504 29.27 36.662 26.366 25.82 16.345 19.013 6.98 21.522z" opacity=".2"/><path d="M30.318 5.004a3.429 3.652 0 0 0-3.317 3.65v48.694A3.429 3.652 0 0 0 30.43 61h25.142a3.429 3.652 0 0 0 3.004-5.412L33.434 6.894a3.429 3.652 0 0 0-3.116-1.89z" opacity=".2"/><path d="M6.98 20.522a3.22 2.781 75 0 0-1.852 3.83l8.89 33.176a3.22 2.781 75 0 0 3.519 2.39C26.9 57.41 32.176 46.504 29.27 35.662 26.366 24.82 16.345 18.013 6.98 20.522z" fill="#79b444"/><path d="M10.51 20.01a15.247 15.247 0 0 0-3.527.512 3.22 2.781 75 0 0-1.946 3.375 3.22 2.781 75 0 1 1.946-2.375 15.248 15.248 0 0 1 3.527-.512c8.23-.23 16.218 6.165 18.76 15.652.465 1.735.705 3.468.762 5.17a22.933 22.933 0 0 0-.762-6.172c-2.542-9.487-10.529-15.88-18.76-15.65z" fill="#fff" opacity=".2"/><path d="M30.318 4.004a3.429 3.652 0 0 0-3.317 3.65v48.694A3.429 3.652 0 0 0 30.43 60h25.142a3.429 3.652 0 0 0 3.004-5.412L33.434 5.894a3.429 3.652 0 0 0-3.116-1.89z" fill="#35aabd"/><path d="M43 36.001s-9 .2-9 3 8 9.4 8 12.2-9 2.8-9 2.8" fill="none" opacity=".2" stroke="#000" stroke-linejoin="round" stroke-width="6"/><path d="M43 35.001s-9 .2-9 3 8 9.4 8 12.2c0 2.8-9 2.8-9 2.8" fill="none" stroke="#fff" stroke-linejoin="round" stroke-width="6"/><path d="M12.412 27.228c-.186.02-.373.046-.562.027l7.038 26.265c3.986-2.847 6.355-8.704 4.586-15.304-1.631-6.087-6.008-10.037-10.504-10.984a1.74 1.74 0 0 0-.558-.004z" opacity=".2"/><path d="M12.412 26.228c-.186.02-.373.046-.562.027l7.038 26.265c3.986-2.847 6.355-8.704 4.586-15.304-1.631-6.087-6.008-10.037-10.504-10.984a1.74 1.74 0 0 0-.558-.004z" fill="#fff"/><path d="M30.316 4.002A3.429 3.652 0 0 0 27 7.654v1a3.429 3.652 0 0 1 3.316-3.652 3.429 3.652 0 0 1 3.117 1.89L58.574 55.59a3.429 3.652 0 0 1 .389 1.256 3.429 3.652 0 0 0-.389-2.256L33.434 5.893a3.429 3.652 0 0 0-3.118-1.891z" fill="#fff" opacity=".2"/></svg>