<svg width="64" height="64" xmlns="http://www.w3.org/2000/svg"><path d="M32.856 61h-1.66a.665.665 0 0 0-.232-.035 30.173 30.173 0 0 1-2.638-.232 27.25 27.25 0 0 1-4.798-1.069 28.138 28.138 0 0 1-7.491-3.692 27.804 27.804 0 0 1-5.698-5.274c-1.95-2.377-3.468-5-4.545-7.884a27.448 27.448 0 0 1-1.717-7.946c0-.148-.028-.296-.077-.443v-2.89c.049-.128.07-.261.077-.395a27.622 27.622 0 0 1 2.969-10.845 27.936 27.936 0 0 1 3.587-5.394 28.082 28.082 0 0 1 4.685-4.402 27.77 27.77 0 0 1 9.313-4.536 27.794 27.794 0 0 1 5.03-.886c.302-.028.619 0 .921-.077h2.842c.218.063.443.028.66.049a31.69 31.69 0 0 1 3.356.457 27.671 27.671 0 0 1 9.736 3.93 27.964 27.964 0 0 1 6.176 5.409 27.508 27.508 0 0 1 3.665 5.506 27.416 27.416 0 0 1 2.505 7.377c.253 1.364.443 2.742.45 4.135 0 .092.02.19.028.28v1.66c-.028.106-.028.218-.035.33 0 .268 0 .536-.021.803a29.238 29.238 0 0 1-.817 5.042 27.742 27.742 0 0 1-3.918 8.671 27.97 27.97 0 0 1-4.713 5.352 28.01 28.01 0 0 1-5.889 3.98 27.825 27.825 0 0 1-10.89 2.932c-.277.032-.573.025-.862.087z" opacity=".2"/><path d="M32.856 60h-1.66a.665.665 0 0 0-.232-.035 30.173 30.173 0 0 1-2.638-.232 27.25 27.25 0 0 1-4.798-1.069 28.138 28.138 0 0 1-7.491-3.692 27.804 27.804 0 0 1-5.698-5.274c-1.95-2.377-3.468-5-4.545-7.884a27.448 27.448 0 0 1-1.717-7.946c0-.148-.028-.296-.077-.443v-2.89c.049-.128.07-.261.077-.395a27.622 27.622 0 0 1 2.969-10.845 27.936 27.936 0 0 1 3.587-5.394 28.082 28.082 0 0 1 4.685-4.402 27.77 27.77 0 0 1 9.313-4.536 27.794 27.794 0 0 1 5.03-.886c.302-.028.619 0 .921-.077h2.842c.218.063.443.028.66.049a31.69 31.69 0 0 1 3.356.457 27.671 27.671 0 0 1 9.736 3.93 27.964 27.964 0 0 1 6.176 5.409 27.508 27.508 0 0 1 3.665 5.506 27.416 27.416 0 0 1 2.505 7.377c.253 1.364.443 2.742.45 4.135 0 .092.02.19.028.28v1.66c-.028.106-.028.218-.035.33 0 .268 0 .536-.021.803a29.238 29.238 0 0 1-.817 5.042 27.742 27.742 0 0 1-3.918 8.671 27.97 27.97 0 0 1-4.713 5.352 28.01 28.01 0 0 1-5.889 3.98 27.825 27.825 0 0 1-10.89 2.932c-.277.032-.573.025-.862.087z" fill="#4f4f4f"/><path d="M42.895 46.998a6.07 6.07 0 0 1-1.412-.144c-1.445-.317-2.673-.974-3.616-2.139a13.275 13.275 0 0 1-1.472-2.29 24.121 24.121 0 0 1-1.253-2.954 32.131 32.131 0 0 1-1.09-3.718c-.157-.704.02-1.145.8-1.388.989-.309 1.985-.585 3.001-.81 1.683-.368 3.378-.604 5.108-.546.488.02.976.072 1.458.157a6.29 6.29 0 0 1 3.556 1.909c1.657 1.737 2.316 3.81 1.907 6.172-.587 3.376-3.583 5.778-6.987 5.751zM21.105 46.998a6.07 6.07 0 0 0 1.412-.144c1.445-.317 2.673-.974 3.616-2.139.574-.71 1.056-1.48 1.472-2.29.489-.954.897-1.948 1.253-2.954.435-1.217.805-2.46 1.09-3.718.157-.704-.02-1.145-.8-1.388-.989-.309-1.985-.585-3.001-.81-1.683-.368-3.378-.604-5.108-.546-.488.02-.976.072-1.458.157a6.29 6.29 0 0 0-3.556 1.909c-1.657 1.737-2.316 3.81-1.907 6.172.587 3.376 3.583 5.778 6.987 5.751z" opacity=".2"/><path d="M21.105 45.998a6.07 6.07 0 0 0 1.412-.144c1.445-.317 2.673-.974 3.616-2.139.574-.71 1.056-1.48 1.472-2.29.489-.954.897-1.948 1.253-2.954.435-1.217.805-2.46 1.09-3.718.157-.704-.02-1.145-.8-1.388-.989-.309-1.985-.585-3.001-.81-1.683-.368-3.378-.604-5.108-.546-.488.02-.976.072-1.458.157a6.29 6.29 0 0 0-3.556 1.909c-1.657 1.737-2.316 3.81-1.907 6.172.587 3.376 3.583 5.778 6.987 5.751z" fill="#e9ff61"/><path d="M25.003 21.382c-.02.514.072 1.077.223 1.64.29 1.07.768 2.05 1.332 2.977 1.286 2.107 2.906 3.91 4.665 5.585.144.138.315.254.499.342a.616.616 0 0 0 .557.014c.184-.082.348-.199.486-.35.61-.63 1.213-1.263 1.79-1.915a31.039 31.039 0 0 0 2.29-2.902c.637-.926 1.208-1.9 1.627-2.957.42-1.05.623-2.133.486-3.272-.23-1.88-.997-3.472-2.369-4.72-1.621-1.474-3.51-2.064-5.636-1.736-3.457.536-5.963 3.72-5.95 7.294z" opacity=".2"/><path d="M25.003 20.382c-.02.514.072 1.077.223 1.64.29 1.07.768 2.05 1.332 2.977 1.286 2.107 2.906 3.91 4.665 5.585.144.138.315.254.499.342a.616.616 0 0 0 .557.014c.184-.082.348-.199.486-.35.61-.63 1.213-1.263 1.79-1.915a31.039 31.039 0 0 0 2.29-2.902c.637-.926 1.208-1.9 1.627-2.957.42-1.05.623-2.133.486-3.272-.23-1.88-.997-3.472-2.369-4.72-1.621-1.474-3.51-2.064-5.636-1.736-3.457.536-5.963 3.72-5.95 7.294z" fill="#10b7d6"/><path d="M42.895 45.998a6.07 6.07 0 0 1-1.412-.144c-1.445-.317-2.673-.974-3.616-2.139a13.275 13.275 0 0 1-1.472-2.29 24.121 24.121 0 0 1-1.253-2.954 32.131 32.131 0 0 1-1.09-3.718c-.157-.704.02-1.145.8-1.388.989-.309 1.985-.585 3.001-.81 1.683-.368 3.378-.604 5.108-.546.488.02.976.072 1.458.157a6.29 6.29 0 0 1 3.556 1.909c1.657 1.737 2.316 3.81 1.907 6.172-.587 3.376-3.583 5.778-6.987 5.751z" fill="#ff5e5e"/><g fill="#fff"><path d="M30.582 4c-.302.077-.62.048-.922.076a27.794 27.794 0 0 0-5.03.887 27.763 27.763 0 0 0-9.312 4.535 28.09 28.09 0 0 0-8.271 9.797 27.628 27.628 0 0 0-2.97 10.846 1.278 1.278 0 0 1-.077.394v1c.049-.127.07-.261.076-.394a27.627 27.627 0 0 1 2.97-10.846 28.09 28.09 0 0 1 8.271-9.797 27.763 27.763 0 0 1 9.314-4.535 27.794 27.794 0 0 1 5.03-.887c.301-.028.619.001.921-.076h2.842c.218.063.444.028.662.049 1.126.098 2.243.24 3.353.457 3.497.69 6.74 1.999 9.737 3.931a27.96 27.96 0 0 1 6.176 5.407 27.524 27.524 0 0 1 3.666 5.507 27.414 27.414 0 0 1 2.503 7.377c.253 1.365.445 2.743.452 4.135 0 .093.02.19.027.282v-1c-.007-.091-.027-.19-.027-.282-.007-1.392-.199-2.77-.452-4.135a27.414 27.414 0 0 0-2.503-7.377c-1-1.982-2.224-3.82-3.666-5.507a27.953 27.953 0 0 0-6.176-5.407 27.674 27.674 0 0 0-9.737-3.931 31.665 31.665 0 0 0-3.353-.457c-.218-.021-.444.014-.662-.049h-2.842zM21.039 32.008c-.489.02-.977.073-1.459.158a6.287 6.287 0 0 0-3.555 1.908c-1.464 1.536-2.146 3.334-2.004 5.362.112-1.623.786-3.084 2.004-4.362a6.287 6.287 0 0 1 3.555-1.908c.482-.085.97-.138 1.459-.158 1.73-.058 3.425.178 5.107.547a36.22 36.22 0 0 1 3.002.81c.404.126.64.308.758.55.013-.054.03-.107.041-.16.158-.705-.02-1.147-.799-1.39-.989-.309-1.986-.586-3.002-.81-1.682-.369-3.378-.605-5.107-.547z" opacity=".1"/><path d="M31.738 13.008c-.258.012-.52.039-.785.08-3.457.536-5.965 3.72-5.951 7.295-.005.13.017.268.025.402.25-3.325 2.662-6.191 5.926-6.697 2.125-.329 4.015.262 5.637 1.736 1.37 1.249 2.137 2.842 2.367 4.721.008.065.004.128.01.193a5.89 5.89 0 0 0-.01-1.193c-.23-1.88-.996-3.472-2.367-4.72-1.42-1.29-3.044-1.904-4.852-1.817zM42.961 32.008c-1.73-.058-3.425.178-5.107.547a36.22 36.22 0 0 0-3.002.81c-.78.243-.957.685-.8 1.39.013.053.03.106.042.16.118-.242.354-.424.758-.55.989-.309 1.986-.586 3.002-.81 1.682-.369 3.378-.605 5.107-.547.489.02.977.073 1.459.158a6.287 6.287 0 0 1 3.555 1.908c1.218 1.278 1.892 2.739 2.004 4.362.142-2.028-.54-3.826-2.004-5.362a6.287 6.287 0 0 0-3.555-1.908 10.85 10.85 0 0 0-1.459-.158z" opacity=".1"/></g></svg>