<svg width="64" height="64" xmlns="http://www.w3.org/2000/svg"><g fill-rule="evenodd"><path d="M60.008 7.047c-.497-.08-.943.201-1.211.52-.268.32-.454.715-.617 1.213-.28.863-1.31 4.065-5.022 7.23-3.712 3.164-10.114 6.705-21.209 6.99-6.746.079-11.399-2.82-14.09-8.143-.67-1.329-1.86-3.805-1.86-2.23v2.436l-.034 12.606.069.166s.604 1.343-.035 3.152c-.638 1.809-2.946 4.449-8.575 6.138l-.688.204.131.725c.312 1.755 1.557 3.554 3.394 5.396 1.837 1.842 4.297 3.705 7.16 5.39 5.729 3.369 13.066 6.031 20.195 6.156 7.128.124 14.103-2.368 18.718-9.273 4.615-6.904 6.865-19.48 5.022-36.643h-.004c-.058-.47-.162-.873-.348-1.226-.186-.352-.5-.716-.996-.795z" opacity=".2"/><path d="M60.008 6.047c-.497-.08-.943.201-1.211.52-.268.32-.454.715-.617 1.213-.28.863-1.31 4.065-5.022 7.23-3.712 3.164-10.114 6.705-21.209 6.99-6.746.079-11.399-3.82-14.09-9.143C17.19 11.53 16 9.053 16 10.628v2.436l-.034 13.605.069.166s.604 1.342-.035 3.151c-.638 1.81-2.946 4.45-8.575 6.138l-.688.205.131.724c.312 1.756 1.557 3.555 3.394 5.397 1.837 1.841 4.297 3.705 7.16 5.39 5.729 3.368 13.066 6.03 20.195 6.155 7.128.125 14.103-2.368 18.718-9.272s6.865-19.481 5.022-36.643h-.004c-.058-.471-.162-.874-.348-1.226-.186-.353-.5-.717-.996-.795z" fill="#6c5a42"/><path d="M60.008 6.047c-.497-.079-.943.2-1.21.52-.27.319-.456.716-.618 1.214-.28.863-1.31 4.064-5.022 7.229-3.712 3.164-10.114 6.705-21.209 6.99-6.746.079-11.4-3.82-14.09-9.143C17.188 11.53 16 9.054 16 10.63v1c0-1.575 1.188.9 1.86 2.228 2.69 5.324 7.343 9.222 14.09 9.143 11.094-.286 17.496-3.826 21.208-6.99 3.713-3.165 4.742-6.366 5.022-7.229.162-.498.349-.895.617-1.215.268-.319.714-.598 1.211-.52v.013c.497.078.81.444.996.796.186.353.291.754.35 1.225h.002c.432 4.02.632 7.778.636 11.281.037-3.781-.163-7.878-.636-12.28h-.002c-.059-.472-.164-.873-.35-1.226-.186-.352-.5-.718-.996-.796v-.012zM16 13.065l-.035 13.604.002.006.033-12.61v-1zm.262 15.753A5.058 5.058 0 0 1 16 29.986c-.639 1.81-2.946 4.45-8.574 6.14l-.69.204.131.725c.013.073.037.147.053.22l.506-.15c5.628-1.69 7.935-4.33 8.574-6.139a4.876 4.876 0 0 0 .262-2.168z" fill="#fff" opacity=".1"/><path d="M35.999 21c-1.98 0-3.968.654-5.482 2C29.002 24.346 28 26.398 28 29.001c0 2.604 1.001 4.653 2.516 5.999s3.503 2 5.482 2 3.968-.654 5.482-2c1.515-1.346 2.52-3.395 2.52-5.999 0-2.603-1.005-4.655-2.52-6C39.968 21.653 37.979 21 36 21z" opacity=".2"/><path d="M21.999 21c-1.98 0-3.968.654-5.482 2C15.002 24.346 14 26.398 14 29.001c0 2.604 1.001 4.653 2.516 5.999s3.503 2 5.482 2c1.98 0 3.968-.654 5.483-2C28.996 33.654 30 31.605 30 29c0-2.603-1.005-4.655-2.52-6C25.968 21.653 23.979 21 22 21z" opacity=".2"/><path d="M21.999 20c-1.98 0-3.968.654-5.482 2C15.002 23.346 14 25.398 14 28.001c0 2.604 1.001 4.653 2.516 5.999 1.514 1.346 3.503 2 5.482 2 1.98 0 3.968-.654 5.483-2C28.996 32.654 30 30.605 30 28c0-2.603-1.005-4.655-2.52-6C25.968 20.653 23.979 20 22 20z" fill="#fff"/><path d="M24 25c-.98 0-1.971.324-2.734 1.003C20.502 26.68 20 27.726 20 29c0 1.274.502 2.319 1.266 2.997C22.029 32.676 23.02 33 24 33s1.971-.324 2.734-1.003C27.498 31.32 28 30.274 28 29c0-1.274-.502-2.319-1.266-2.997C25.971 25.324 24.98 25 24 25z" fill="#3f3f3f"/><path d="M26 44.999c2.887 0 5.52.15 7.908 0 3.966-.254 7.453-.503 9.215-1.911-.745-.996-1.123-2.089-1.123-2.089s2.413.951 3.578 2.507c1.161 1.55-1.274 2.506-1.578 4.491-.677-1.743-.235-2.397-.406-3.09-1.23 1.76-3.35 3.021-6.199 3.09-3.033.073-6.895-1.352-11.395-2.995z" opacity=".3"/><path d="M7.965 27c-.355 0-.703.022-1.041.078-.903.147-1.738.5-2.458 1.034-2.881 2.137-3.64 6.98-.081 12.054 3.558 5.072 8.267 5.86 11.148 3.722 2.88-2.137 3.642-6.981.083-12.054-2.335-3.329-5.166-4.811-7.65-4.834z" opacity=".2"/><path d="M7.965 26c-.355 0-.703.022-1.041.078-.903.147-1.738.5-2.458 1.034-2.881 2.137-3.64 6.98-.081 12.054 3.558 5.072 8.267 5.86 11.148 3.722 2.88-2.137 3.642-6.981.083-12.054-2.335-3.329-5.166-4.811-7.65-4.834z" fill="#3f3f3f"/><path d="M35.999 20c-1.98 0-3.968.654-5.482 2C29.002 23.346 28 25.398 28 28.001c0 2.604 1.001 4.653 2.516 5.999 1.514 1.346 3.503 2 5.482 2s3.968-.654 5.482-2c1.515-1.346 2.52-3.395 2.52-5.999 0-2.603-1.005-4.655-2.52-6C39.968 20.653 37.979 20 36 20z" fill="#fff"/><path d="M38 25c-.98 0-1.971.324-2.734 1.003C34.502 26.68 34 27.726 34 29c0 1.274.502 2.319 1.266 2.997C36.029 32.676 37.02 33 38 33s1.971-.324 2.734-1.003C41.498 31.32 42 30.274 42 29c0-1.274-.502-2.319-1.266-2.997C39.971 25.324 38.98 25 38 25z" fill="#3f3f3f"/><path d="M7.965 26c-.355 0-.705.023-1.043.078-.903.147-1.737.501-2.457 1.035-1.64 1.217-2.568 3.32-2.426 5.834.126-2.067 1.008-3.782 2.426-4.834a5.622 5.622 0 0 1 2.457-1.035A6.454 6.454 0 0 1 7.965 27c2.485.022 5.317 1.503 7.652 4.832 1.519 2.165 2.219 4.275 2.326 6.16.124-2.122-.532-4.603-2.326-7.16-2.335-3.329-5.167-4.81-7.652-4.832z" fill="#fff" opacity=".1"/></g></svg>