<svg width="64" height="64" version="1" xmlns="http://www.w3.org/2000/svg"><g fill-rule="evenodd"><path d="M4.036 32.7c-.078.39-.123.784-.13 1.178v.11c0 4.58 11.59.61 13.763 5.242.257-.31.386-.692.285-1.202-1.1-5.57-12.634-1.716-13.918-5.328zM60 33.152c-.226.994-1.016 1.836-3.75 3.118-9.312 2.566-12.252 1.814-12.07 4.394.006.38.066.716.164 1.024.728-1.444 4.036-1.248 11.906-3.418 3.722-1.746 3.854-2.674 3.84-4.282v-.11c-.004-.242-.056-.484-.09-.726zM11.284 43.938a1.596 1.596 0 0 0-.356 1.03c0 3.7 10.433 1.284 13.747 4.138.372-.45.534-1.016.19-1.852-2.78-2.784-11.744-1.008-13.58-3.316zm42.624.418c-.54.338-.936.86-.844 1.71 2.554 1.072 6.45 1.926 6.914-.218.13-.596-.002-1.06-.284-1.41-.918 1.196-3.596.706-5.786-.082zm-5.82 3.598c-1.694 2.786-8.89 2.688-10.496 4.346-.736.76-.406 1.35.112 1.91 2.022-1.772 10.686-1.474 10.75-5.506a3.577 3.577 0 0 0-.366-.75zm-31.832 3.112c-1.507.8-2.703 1.45-4.45.798-.054-.02-.08-.05-.128-.072-.879.742-1.108 1.608.129 2.072 1.81.676 3.022-.04 4.61-.88 1.586-.84 1.54-.992 1.425-1.316-.138.028-.775-.31-1.586-.602zm5.796 1.954c-.412.422-.63.944-.37 1.722 1.818 1.878 5.908.814 6.694 3.844.898 3.462 6.774 2.864 10.204.328.742-.766.404-1.36-.126-1.926-3.444 2.464-9.19 3.02-10.078-.402-.738-2.85-4.378-2.108-6.324-3.566z" opacity=".2"/><path d="M31.999 4c-1.602 0-3.162.6-4.39 1.867L5.775 28.377a6.642 6.642 0 0 0-1.866 4.502v.11c0 4.824 12.882.14 14.046 6.039.63 3.192-7.023 1.73-7.023 4.941 0 3.768 10.833 1.177 13.936 4.283 1.275 3.105-4.147 2.604-3.182 5.49 1.818 1.877 5.908.813 6.694 3.843.897 3.462 6.775 2.865 10.205.329 1.818-1.877-2.806-2.735-.988-4.612 1.818-1.877 10.8-1.498 10.864-5.6-.858-2.577-4.228-2.993-4.28-6.04-.18-2.579 2.76-1.824 12.071-4.392 3.724-1.745 3.855-2.674 3.841-4.282v-.11c-.021-1.62-.772-3.259-1.975-4.501L36.391 5.867A6.018 6.018 0 0 0 32.001 4zm25.458 38.542c-.444-.014-.891.021-1.207.11-.595.171-3.415.272-3.183 2.415 2.555 1.072 6.45 1.925 6.914-.219.348-1.607-1.193-2.256-2.524-2.306zM13.893 49.68c-.248.028-.416.127-.658.219-1.938.737-3.237 2.287-1.427 2.965 1.81.677 3.022-.039 4.609-.879 1.587-.84 1.541-.993 1.426-1.317-.22.044-1.662-.855-3.182-.989a3.99 3.99 0 0 0-.768 0z" fill="#4f4f4f"/><path d="M32.434 11c1.642.014 6.142 5.583 10.157 9.753 1.13 1.516-.59 3.247-.59 3.247l-8-5-4 5-3-4-2 7-6-3.507 10.593-11.287c.696-.709 1.228-1.218 2.84-1.205z" opacity=".2"/><path d="M32.434 10c1.642.014 6.142 5.583 10.157 9.753 1.13 1.516-.59 3.247-.59 3.247l-8-5-4 5-3-4-2 7-6-3.507 10.593-11.287c.696-.709 1.228-1.218 2.84-1.205z" fill="#fff"/><path d="M31.998 4c-1.602 0-3.16.6-4.389 1.867L5.773 28.377a6.641 6.641 0 0 0-1.865 4.502v.11c0 .13.013.25.031.367a6.646 6.646 0 0 1 1.834-3.979L27.61 6.867A6.018 6.018 0 0 1 31.998 5h.004c1.602 0 3.161.6 4.389 1.867l21.727 22.51c1.142 1.18 1.87 2.718 1.959 4.258.013-.205.017-.418.015-.646v-.11c-.02-1.621-.771-3.26-1.974-4.502L36.39 5.867A6.017 6.017 0 0 0 32.002 4h-.004zm-14.1 35.826c-.751 2.143-6.967 1.244-6.967 4.143 0 .18.03.341.078.494.781-2.549 7.537-1.425 6.944-4.434-.014-.071-.037-.135-.055-.203zm26.318 2.24c-.034.18-.051.37-.035.596.05 2.93 3.163 3.434 4.164 5.762.07-.225.111-.465.115-.723-.818-2.457-3.912-2.954-4.244-5.635zm13.24.477c-.444-.014-.891.02-1.207.11-.595.17-3.414.271-3.182 2.415.043.018.092.033.135.05.558-1.228 2.556-1.324 3.047-1.466.316-.088.763-.123 1.207-.11 1.043.04 2.2.453 2.492 1.4.01-.033.024-.06.032-.095.348-1.607-1.192-2.255-2.524-2.304zm-32.48 7.07c-.571 1.641-3.949 1.764-3.316 4.014.56-1.612 3.91-1.75 3.316-4.014zm-11.084.066c-.248.029-.416.127-.658.22-1.581.6-2.735 1.745-2.123 2.513.338-.567 1.15-1.143 2.123-1.514.242-.092.41-.19.658-.219.248-.028.514-.02.768 0 1.055.093 2.049.545 2.646.803.666-.42.624-.57.537-.814-.22.044-1.664-.855-3.183-.989a3.985 3.985 0 0 0-.768 0zm23.418 5.004c-.632 1.133 1.054 1.898 1.56 2.85.633-1.132-1.054-1.898-1.56-2.85z" fill="#fff" opacity=".1"/></g></svg>