<svg width="64" height="64" version="1" xmlns="http://www.w3.org/2000/svg"><path d="M32 7C17.556 7 6 18.556 6 33s11.556 26 26 26c2.311 0 4-2.022 4-4.333 0-1.156.044-2.022-.822-2.889-.578-.866-1.156-1.733-1.156-2.889 0-2.31 2.023-3.889 4.334-3.889h5.2C51.644 45 58 38.2 58 30.112 58 17.4 46.444 7 32 7z" opacity=".2"/><path d="M32 6C17.556 6 6 17.556 6 32s11.556 26 26 26c2.311 0 4-2.022 4-4.333 0-1.156.044-2.022-.822-2.889-.578-.866-1.156-1.733-1.156-2.889 0-2.31 2.023-3.889 4.334-3.889h5.2C51.644 44 58 37.2 58 29.112 58 16.4 46.444 6 32 6z" fill="#4f4f4f"/><g opacity=".2"><path d="M14 33c-2.133 0-4-1.866-4-4s1.867-4 4-4 4 1.866 4 4-1.866 4-4 4zM24 21c-2.133 0-4-1.866-4-4s1.867-4 4-4 4 1.867 4 4-1.866 4-4 4zM38 21c-2.133 0-4-1.866-4-4s1.867-4 4-4 4 1.867 4 4-1.866 4-4 4zM48 33c-2.133 0-4-1.866-4-4s1.867-4 4-4 4 1.867 4 4-1.866 4-4 4z"/></g><path d="M14 32c-2.133 0-4-1.866-4-4s1.867-4 4-4 4 1.866 4 4-1.867 4-4 4z" fill="#f1a443"/><path d="M24 20c-2.133 0-4-1.867-4-4s1.867-4 4-4 4 1.867 4 4-1.867 4-4 4z" fill="#3f90dc"/><path d="M38 20c-2.133 0-4-1.867-4-4s1.867-4 4-4 4 1.867 4 4-1.867 4-4 4z" fill="#56a913"/><path d="M48 32c-2.133 0-4-1.867-4-4s1.867-4 4-4 4 1.867 4 4-1.867 4-4 4z" fill="#f35b5b"/><path d="M32 6C17.556 6 6 17.556 6 32c0 .11.012.217.018.326A25.881 25.881 0 0 1 32 7c14.2 0 25.602 10.052 25.982 22.471.005-.12.017-.24.017-.361C58 16.398 46.443 6 32 6zm2.172 42.855c-.09.334-.149.681-.149 1.035 0 .17.017.33.04.488a4.52 4.52 0 0 1 .109-.523c.206.704.604 1.314 1.008 1.922.731.732.74 1.476.82 2.383.022-.162 0-.326 0-.492 0-1.156.046-2.025-.82-2.891-.404-.608-.802-1.218-1.008-1.922z" fill="#fff" opacity=".1"/></svg>