<svg xmlns="http://www.w3.org/2000/svg" width="64" height="64"><path d="M4 56v2c0 1.662 1.338 3 3 3h50c1.662 0 3-1.338 3-3v-2c0 1.662-1.338 3-3 3H7c-1.662 0-3-1.338-3-3z" opacity=".2"/><rect width="56" height="56" x="-60" y="-60" rx="4.2" ry="4.2" transform="matrix(0 -1 -1 0 0 0)" opacity=".2"/><path fill="#f4f1ef" stroke="#f4f1ef" stroke-width="2.8" d="M13.34 20.185l29.013-8.32 8.32 29.013-29.013 8.32z"/><path d="M5.698 19.8c-.58 0-1.139.028-1.698.036v35.978c0 .31.038.611.101.902 6.2-.553 12.255-1.912 17.552-7.434l-8.32-29.014c-2.709-.306-5.254-.464-7.635-.468z" fill="#48c39e"/><path d="M50.668 40.8l-29.014 8.32a25.74 25.74 0 0 0-.35 10.733H55.8a4.19 4.19 0 0 0 2.286-.68c-.222-6.688-.82-13.28-7.419-18.373z" fill="#d81768"/><path d="M58.316 4.8c-6.537.626-12.588 1.945-15.969 7.08l8.32 29.013c3.316.685 6.403.745 9.333.37V8.147A4.172 4.172 0 0 0 58.316 4.8z" fill="#ecb524"/><path d="M8.2 4a4.19 4.19 0 0 0-2.272.673c1.378 5.381 3.924 10.56 7.404 15.58l29.014-8.32c1.17-2.948 1.502-5.545 1.326-7.933H8.2z" fill="#81d2e0"/><path d="M21.654 49.2L4.001 54.261v1.471a4.19 4.19 0 0 0 4.2 4.2h16.532L21.654 49.2z" fill="#390f39"/><path d="M8.2 4A4.19 4.19 0 0 0 4 8.2v14.73l9.332-2.677L8.673 4H8.2z" fill="#20a48e"/><path d="M40.072 4l2.275 7.933 17.44-4.999A4.176 4.176 0 0 0 55.8 4H40.072z" fill="#77971f"/><path d="M60 38.2l-9.333 2.677 5.453 19.02A4.177 4.177 0 0 0 60 55.73V38.2z" fill="#d5100d"/><path d="M7 4C5.338 4 4 5.338 4 7v1c0-1.662 1.338-3 3-3h50c1.662 0 3 1.338 3 3V7c0-1.662-1.338-3-3-3H7z" opacity=".1" fill="#fff"/><path d="M38.966 36c0 1.923-.634 3.398-1.9 4.424-1.258 1.027-3.116 1.54-5.576 1.54-1.701 0-3.18-.282-4.438-.846-1.248-.564-2.265-1.475-3.051-2.732L27.01 36c1.293 1.448 2.88 1.963 4.562 2.096 1.064 0 1.891-.18 2.483-.54.6-.37.944-.53.944-1.279 0-.425-.149-.78-.362-1.068-.203-.286-.513-.531-.929-.735-.416-.212-1.137-.453-2.163-.72-.999-.269-2.342-.537-3.23-.805-.878-.278-1.641-.634-2.288-1.068a4.827 4.827 0 0 1-1.512-1.637c-.37-.656-.555-1.484-.555-2.482 0-1.822.615-3.241 1.845-4.258 1.23-1.027 3.391-1.54 5.684-1.54 3.32 0 5.668 1.138 7.046 3.412l-2.982 1.93c-.527-.813-1.119-1.396-1.775-1.747-.657-.352-1.438-.527-2.344-.527-1.96.024-3.115.509-3.466 2.338 0 .62.296 1.196.888 1.529.592.323 2.023.652 3.493.985.814.212 1.618.443 2.413.693.796.24 1.503.578 2.122 1.013a4.818 4.818 0 0 1 1.512 1.705c.38.703.569 1.605.569 2.705" fill="#5a3856"/></svg>