<svg width="64" height="64" version="1" xmlns="http://www.w3.org/2000/svg"><path d="M4.05 32c-.012.334-.05.662-.05 1 0 15.512 12.487 28 28 28s28-12.488 28-28c0-.338-.04-.666-.05-1C59.42 47.042 47.172 59 32 59 16.824 59 4.576 47.042 4.05 32z" opacity=".2"/><path d="M59.999 32c0-15.512-12.488-28-28-28s-28 12.488-28 28 12.488 28 28 28 28-12.488 28-28z" fill="#324b6c"/><path d="M40 15a10 10 0 0 0-10 10 10 10 0 0 0 0 .002l-6.611 9.06A7.5 7.5 0 0 0 22.5 34a7.5 7.5 0 0 0-5.008 1.928L5.53 31.076c-.333-.135-.86-.319-1.422-.492A28.57 28.57 0 0 0 4 33c0 1.376.101 2.727.29 4.049l10.714 4.345A7.5 7.5 0 0 0 15 41.5a7.5 7.5 0 0 0 7.5 7.5 7.5 7.5 0 0 0 7.5-7.5 7.5 7.5 0 0 0-.018-.37l8.461-6.257A10 10 0 0 0 40 35a10 10 0 0 0 10-10 10 10 0 0 0-10-10zm0 3a7 7 0 0 1 7 7 7 7 0 0 1-7 7 7 7 0 0 1-7-7 7 7 0 0 1 7-7zm0 2a5 5 0 0 0-5 5 5 5 0 0 0 5 5 5 5 0 0 0 5-5 5 5 0 0 0-5-5zM22.5 37a4.5 4.5 0 0 1 4.5 4.5 4.5 4.5 0 0 1-4.5 4.5 4.5 4.5 0 0 1-4.342-3.328l2.723 1.105a2.994 2.994 0 0 0 3.908-1.652 2.994 2.994 0 0 0-1.652-3.908l-2.254-.914A4.5 4.5 0 0 1 22.5 37z" opacity=".2"/><g fill="#fff"><path d="M32 4C16.488 4 4 16.488 4 32c0 .11.01.216.016.324C4.373 17.128 16.715 5 32 5s27.627 12.128 27.984 27.324c.006-.108.015-.215.015-.324C60 16.488 47.511 4 32 4z" opacity=".12"/><path d="M22.5 33a7.5 7.5 0 0 0-7.5 7.5 7.5 7.5 0 0 0 7.5 7.5 7.5 7.5 0 0 0 7.5-7.5 7.5 7.5 0 0 0-7.5-7.5zm0 3a4.5 4.5 0 0 1 4.5 4.5 4.5 4.5 0 0 1-4.5 4.5 4.5 4.5 0 0 1-4.5-4.5 4.5 4.5 0 0 1 4.5-4.5z"/><path d="M22.768 33.914l8.502-11.652 2.196 6.933 7.691 2.67-11.833 8.752-2.728-3.954z"/><path d="M40 14a10 10 0 0 0-10 10 10 10 0 0 0 10 10 10 10 0 0 0 10-10 10 10 0 0 0-10-10zm0 3a7 7 0 0 1 7 7 7 7 0 0 1-7 7 7 7 0 0 1-7-7 7 7 0 0 1 7-7z"/><circle cx="40" cy="24" r="5"/><path d="M4.107 29.584A28.57 28.57 0 0 0 4 32c0 1.376.101 2.727.291 4.049l16.59 6.728a2.994 2.994 0 0 0 3.908-1.652 2.994 2.994 0 0 0-1.652-3.908L5.53 30.077c-.334-.136-.86-.32-1.422-.493z"/></g></svg>