<svg width="64" height="64" version="1" xmlns="http://www.w3.org/2000/svg"><g stroke-width="1.047"><path d="M55.655 52.088L47.559 6.181c-.25-1.413-1.663-2.362-3.17-2.129L6.308 9.957c-1.507.233-2.52 1.559-2.27 2.972l8.096 45.907c.25 1.413 1.663 2.362 3.17 2.128l38.08-5.904c1.508-.234 2.52-1.56 2.271-2.972z" opacity=".2"/><path d="M55.655 51.071L47.559 5.164c-.25-1.413-1.663-2.362-3.17-2.129L6.308 8.94c-1.507.233-2.52 1.559-2.27 2.972l8.096 45.907c.25 1.413 1.663 2.362 3.17 2.128l38.08-5.904c1.508-.233 2.52-1.559 2.271-2.972z" fill="#3f3f3f"/><path d="M44.947 3.002a2.97 2.97 0 0 0-.56.034L6.307 8.94c-1.506.234-2.518 1.56-2.27 2.973l.02.113c.209-1.035 1.074-1.886 2.25-2.069l38.08-5.902c1.507-.234 2.921.715 3.17 2.128l8.078 45.8c.06-.293.073-.599.018-.91L47.557 5.164c-.218-1.236-1.326-2.118-2.61-2.162z" fill="#fff" opacity=".1"/><path d="M12.615 25.965l23.76 16.72 6.394-3.797-26.822-13.994z" opacity=".2"/><path d="M13.046 43.702h34.978l1.24 8.14z" fill="#1c65c2"/><path d="M41.692 8.088l12.178 2.586L60 46.918 49.265 52.86z" opacity=".2"/><path d="M41.692 7.07L53.87 9.657 60 45.9l-10.735 5.941z" fill="#2996dd"/><path d="M32.067 15.211l7.292 1.715 3.41 20.944-6.394 3.797z" fill="#1c65c2"/><path d="M12.615 24.947l23.76 16.72 6.394-3.797-26.822-13.994z" fill="#2996dd"/><path d="M15.947 23.877l-3.332 1.071.993.698 2.339-.753 25.91 13.519.913-.541z" fill="#fff" opacity=".1"/><path d="M14.769 39.193l17.298-22.965 7.292 1.715-21.08 21.28z" opacity=".2"/><path d="M14.769 38.175L32.067 15.21l7.292 1.715-21.08 21.28z" fill="#2996dd"/><path d="M41.693 7.07l.179 1.056 11.998 2.548 5.971 35.315L60 45.9 53.87 9.656zM32.068 15.211L14.769 38.176l.76.006L32.066 16.23l6.473 1.523.818-.825z" fill="#fff" opacity=".2"/></g></svg>