<svg width="64" height="64" version="1" xmlns="http://www.w3.org/2000/svg"><path d="M4.05 32.001c-.011.334-.05.662-.05 1C4 48.513 16.488 61 31.999 61s27.999-12.488 27.999-27.999c0-.338-.039-.665-.05-1C59.418 47.043 47.17 59 31.997 59 16.824 59 4.578 47.042 4.05 32.001z" opacity=".2"/><rect transform="matrix(0 -1 -1 0 0 0)" x="-60" y="-60" width="55.998" height="55.998" rx="27.999" ry="27.999" fill="#40a459"/><path d="M24.84 15.002c-.456-.013-.884.028-1.17.123-1.4.474-2.28 1.493-2.766 3.195-.42 1.484-.409 4.154.03 6.479.077.404.155.77.174.83.023.083-.126.136-.787.285-3.235.729-5.597 1.815-7.016 3.227-.637.628-.99 1.179-1.195 1.873-.145.481-.145 1.435 0 1.91.397 1.306 1.514 2.533 3.28 3.619 1.227.747 1.594.83 1.991.437.186-.183.229-.27.229-.49 0-.426-.134-.6-.711-.926-3.618-2.01-4.254-4.026-1.838-5.818 1.226-.908 2.94-1.626 5.248-2.184 1.01-.242 1.238-.273 1.238-.142 0 .177.744 2.527 1.129 3.54l.398 1.063-.523.995c-2.092 3.985-3.434 8.05-3.596 11.02-.132 2.29.289 3.928 1.31 4.942 1.118 1.104 2.694 1.34 4.72.7.763-.244 2.278-1.003 3.162-1.597.637-.42.776-.545.86-.765.086-.22.086-.29 0-.522-.125-.344-.39-.535-.751-.535-.234 0-.394.07-.996.475-1.365.914-2.646 1.484-3.71 1.662-1.472.249-2.416-.392-2.849-1.91-.186-.66-.175-2.77.03-3.862.312-1.737.858-3.541 1.64-5.44.463-1.126 1.347-3.011 1.467-3.136.06-.065.14.041.338.492 1.011 2.241 2.556 4.976 4.064 7.188 3.602 5.275 7.544 8.71 10.58 9.201l-.033.006c1.334.213 2.46-.115 3.33-.975.71-.712 1.179-1.713 1.444-3.107.161-.872.161-3.31 0-4.502-.493-3.553-1.803-7.626-3.768-11.684-.306-.635-.48-.79-.877-.79-.445-.005-.807.332-.807.759 0 .149.152.551.405 1.08 2.422 5.094 3.72 10.023 3.588 13.588-.082 2.124-.62 3.4-1.635 3.892-.534.26-1.208.255-2.098-.03-4.083-1.364-9.613-8.186-13.178-16.253l-.355-.805.517-.873c.583-.99 2.056-3.201 2.735-4.109l.457-.603h1.203c7.305 0 14.536 1.629 18.37 4.127.783.51 1.726 1.443 2.009 1.988.204.38.224.48.224.984 0 .494-.02.612-.187.914-.47.89-1.708 1.814-3.301 2.473-.739.308-.938.511-.938.932 0 .355.236.651.59.757.23.066.308.054.717-.105 2.573-1.004 4.335-2.563 4.695-4.14.102-.427.094-1.229-.007-1.643-.193-.814-.877-1.857-1.665-2.557-3.51-3.108-10.958-5.112-19.795-5.32l-.63-.02.738-.818a39.782 39.782 0 0 1 1.592-1.701c2.513-2.52 4.847-4.17 6.884-4.858.65-.224.78-.25 1.454-.25.626 0 .776.02 1.046.157.368.171.782.592.993.99.414.812.554 2.235.355 3.754-.066.522-.12 1.126-.12 1.334 0 .35.011.404.216.576a.623.623 0 0 0 .5.195c.35 0 .672-.182.77-.432.287-.735.438-3.34.251-4.437-.289-1.685-1.023-2.824-2.19-3.375-2.061-.984-5.055-.023-8.548 2.74-1.827 1.447-4.232 3.902-5.89 6.002l-.163.19-.98.054c-.823.047-2.163.178-3.72.362l-.337.04-.144-.812c-.282-1.619-.307-1.861-.307-3.41 0-1.359.018-1.62.15-2.166.325-1.376.969-2.23 1.817-2.408 1.166-.243 2.615.332 4.646 1.82.65.481 1.44.072 1.342-.687-.041-.331-.349-.617-1.383-1.3-.866-.575-1.838-1.05-2.632-1.28A5.442 5.442 0 0 0 24.84 15zm1.053 11.678c.296-.019.494-.022.494 0 0 .03-.276.451-.62.95-.342.491-.829 1.214-1.081 1.624-.247.398-.488.76-.535.813-.067.07-.164-.12-.457-1.045-.42-1.275-.601-1.962-.547-2.022.067-.067 1.856-.263 2.746-.32zM32 31a2 2 0 1 0 0 4 2 2 0 0 0 0-4z" opacity=".2"/><path d="M24.84 14.002c-.456-.013-.884.028-1.17.123-1.4.474-2.28 1.493-2.766 3.195-.42 1.484-.409 4.154.03 6.479.077.404.155.77.174.83.023.083-.126.136-.787.285-3.235.729-5.597 1.815-7.016 3.227-.637.628-.99 1.179-1.195 1.873-.145.481-.145 1.435 0 1.91.397 1.306 1.514 2.533 3.28 3.619 1.227.747 1.594.83 1.991.437.186-.183.229-.27.229-.49 0-.426-.134-.6-.711-.926-3.618-2.01-4.254-4.026-1.838-5.818 1.226-.908 2.94-1.626 5.248-2.184 1.01-.242 1.238-.273 1.238-.142 0 .177.744 2.527 1.129 3.54l.398 1.063-.523.995c-2.092 3.985-3.434 8.05-3.596 11.02-.132 2.29.289 3.928 1.31 4.942 1.118 1.104 2.694 1.34 4.72.7.763-.244 2.278-1.003 3.162-1.597.637-.42.776-.545.86-.765.086-.22.086-.29 0-.522-.125-.344-.39-.535-.751-.535-.234 0-.394.07-.996.475-1.365.914-2.646 1.484-3.71 1.662-1.472.249-2.416-.392-2.849-1.91-.186-.66-.175-2.77.03-3.862.312-1.737.858-3.541 1.64-5.44.463-1.126 1.347-3.011 1.467-3.136.06-.065.14.041.338.492 1.011 2.241 2.556 4.976 4.064 7.188 3.602 5.275 7.544 8.71 10.58 9.201l-.033.006c1.334.213 2.46-.115 3.33-.975.71-.712 1.179-1.713 1.444-3.107.161-.872.161-3.31 0-4.502-.493-3.553-1.803-7.626-3.768-11.684-.306-.635-.48-.79-.877-.79-.445-.005-.807.332-.807.759 0 .148.152.551.405 1.08 2.422 5.094 3.72 10.023 3.588 13.588-.082 2.124-.62 3.4-1.635 3.892-.534.26-1.208.255-2.098-.03-4.083-1.364-9.613-8.186-13.178-16.253l-.355-.805.517-.873c.583-.99 2.056-3.201 2.735-4.109l.457-.604h1.203c7.305 0 14.536 1.63 18.37 4.127.783.51 1.726 1.444 2.009 1.989.204.38.224.48.224.984 0 .494-.02.612-.187.914-.47.89-1.708 1.814-3.301 2.473-.739.308-.938.511-.938.932 0 .355.236.651.59.757.23.066.308.054.717-.105 2.573-1.004 4.335-2.563 4.695-4.14.102-.427.094-1.229-.007-1.643-.193-.814-.877-1.857-1.665-2.557-3.51-3.108-10.958-5.112-19.795-5.32l-.63-.02.738-.818a39.782 39.782 0 0 1 1.592-1.701c2.513-2.52 4.847-4.17 6.884-4.858.65-.224.78-.25 1.454-.25.626 0 .776.02 1.046.157.368.171.782.592.993.99.414.812.554 2.235.355 3.754-.066.522-.121 1.126-.121 1.334 0 .35.012.404.217.576a.623.623 0 0 0 .5.195c.35 0 .672-.182.77-.431.287-.735.438-3.34.251-4.438-.289-1.685-1.023-2.824-2.19-3.375-2.061-.984-5.055-.023-8.548 2.74-1.827 1.447-4.232 3.902-5.89 6.002l-.163.19-.98.054c-.823.047-2.163.178-3.72.362l-.337.04-.144-.812c-.282-1.618-.307-1.861-.307-3.41 0-1.359.018-1.62.15-2.166.325-1.376.969-2.23 1.817-2.408 1.166-.243 2.615.332 4.646 1.82.65.481 1.44.072 1.342-.687-.041-.331-.349-.617-1.383-1.3-.866-.575-1.838-1.05-2.632-1.28A5.442 5.442 0 0 0 24.84 14zm1.053 11.678c.296-.019.494-.022.494 0 0 .03-.276.451-.62.95-.342.491-.829 1.214-1.081 1.624-.247.398-.488.76-.535.813-.067.07-.164-.12-.457-1.045-.42-1.275-.601-1.962-.547-2.022.067-.067 1.856-.263 2.746-.32zM32 30a2 2 0 1 0 0 4 2 2 0 0 0 0-4z" fill="#fff"/><path d="M32 4.002C16.488 4.002 4 16.488 4 32c0 .114.011.224.018.336C4.369 17.135 16.712 5 32 5s27.63 12.135 27.982 27.336c.006-.112.017-.223.017-.336A27.937 27.937 0 0 0 32 4.002z" fill="#fff" opacity=".2"/></svg>