<svg width="64" height="64" version="1" xmlns="http://www.w3.org/2000/svg"><path d="M55.999 32a24 24 0 0 1-24 24 24 24 0 0 1-24-24 24 24 0 0 1 24-24 24 24 0 0 1 24 24z" fill="#343434"/><path d="M33.876 7.024c-.256-.011-.508.015-.762.011l-7.986 21.116-11.397-13.093c-.305.317-.63.608-.922.942l12.32 14.152 8.747-23.128zm20.78 12.773l-22.832 3.789-.758 2.124 24.688-4.096c-.332-.628-.718-1.221-1.098-1.817zm-15.27 8.493l-1.448.268 15.94 19.032c2.864-4.432 4.256-9.636 4.064-14.882-.192 4.556-1.566 9.016-4.064 12.882l-14.492-17.3zM6.058 31.292c-.135 3.206.297 6.458 1.414 9.594l18.589-3.444-1.448-1.732-17.141 3.176c-.885-2.484-1.32-5.044-1.414-7.594zm26.876 8.998l-.758.124-5.512 15.472a26.248 26.248 0 0 1-17.32-11.682l-1.098.182c3.657 6.923 10.392 12.012 18.418 13.5l6.27-17.596zM50.27 48.94c-5.104 5.286-12.166 8.124-19.384 8.022l-.762 2.012c7.912.34 15.746-2.868 21.068-8.976l-.922-1.058z" opacity=".2"/><path d="M37.336 7.114l-6.27 17.597 24.688-4.096c-3.656-6.924-10.394-12.012-18.418-13.5z" fill="#e9721a"/><path d="M56.527 24.113l-18.59 3.445 15.941 19.033c4.253-6.584 5.354-14.88 2.65-22.478z" fill="#e3bf20"/><path d="M51.191 48.998L38.87 34.847l-8.747 23.128c7.91.34 15.747-2.869 21.068-8.977z" fill="#28a226"/><path d="M26.664 56.886l6.27-17.596-24.688 4.096c3.657 6.924 10.393 12.012 18.419 13.5z" fill="#2977d1"/><path d="M7.473 39.888l18.59-3.446L10.123 17.41c-4.254 6.584-5.354 14.88-2.65 22.478z" fill="#c029c0"/><path d="M12.808 15.002L25.13 29.153l8.746-23.128c-7.91-.34-15.747 2.869-21.068 8.977z" fill="#c01728"/><g fill="#fff"><path d="M37.336 7.113l-6.27 17.598.38-.062 5.89-16.533a26.263 26.263 0 0 1 17.9 12.586l.518-.086C52.098 13.692 45.36 8.603 37.336 7.114zM56.527 24.113l-18.59 3.443.727.868 17.863-3.31a25.38 25.38 0 0 1 1.459 8.085 25.38 25.38 0 0 0-1.46-9.086zM38.871 34.848l-8.748 23.127c.126.005.251.002.377.006l8.371-22.133 11.871 13.635c.149-.162.304-.318.45-.485l-12.32-14.15zM32.934 39.291L8.246 43.387c.164.31.341.611.518.914l23.79-3.948.38-1.062zM10.121 17.41a25.725 25.725 0 0 0-4.107 14.393 25.736 25.736 0 0 1 4.107-13.391L25.34 36.578l.725-.135L10.122 17.41zM32.395 6.002c-7.398.095-14.598 3.274-19.586 9h-.002l.45.516c5.22-5.693 12.676-8.715 20.241-8.498l.377-.995c-.494-.02-.987-.03-1.48-.023z" opacity=".2"/></g></svg>