<svg width="64" height="64" version="1" xmlns="http://www.w3.org/2000/svg"><g stroke-width=".942"><path d="M2.048 31.527c-.011.316-.048.627-.048.947C2 47.17 13.707 59 28.249 59s26.249-11.83 26.249-26.526c0-.32-.038-.63-.047-.947-.495 14.25-11.977 25.579-26.202 25.579-14.226 0-25.707-11.329-26.202-25.579z" opacity=".2"/><rect transform="matrix(0 -1 -1 0 0 0)" x="-58.053" y="-54.5" width="53.053" height="52.499" rx="26.526" ry="26.249" fill="#ffab30"/><path d="M28.25 5C13.708 5 2 16.83 2 31.527c0 .107.01.212.016.318.331-14.4 11.901-25.896 26.234-25.896s25.903 11.495 26.234 25.896c.006-.106.017-.21.017-.318C54.501 16.83 42.793 5 28.251 5z" fill="#fff" opacity=".2"/><path d="M35.749 59C21.207 59 9.5 47.169 9.5 32.474c0-.32.037-.63.048-.947.494 14.25 11.976 25.579 26.202 25.579s25.707-11.33 26.202-25.58c.01.318.047.628.047.948C62 47.169 50.292 59 35.75 59z" opacity=".2"/><rect transform="matrix(0 -1 -1 0 0 0)" x="-58.053" y="-62" width="53.053" height="52.499" rx="26.526" ry="26.249" fill="#5e4095"/><path d="M11.243 23a26.49 26.49 0 0 0-1.128 3.79h51.269A26.653 26.653 0 0 0 60.255 23h-49.01zm-1.648 7.579c-.022.314-.03.635-.048.951.034.96.118 1.906.25 2.838h51.905c.132-.932.216-1.877.25-2.838-.019-.316-.026-.637-.049-.951H9.596zm.996 7.579a26.452 26.452 0 0 0 1.454 3.79h47.41a26.537 26.537 0 0 0 1.453-3.79H10.592z" opacity=".2"/><path d="M11.243 22.053a26.49 26.49 0 0 0-1.128 3.79h51.269a26.653 26.653 0 0 0-1.129-3.79h-49.01zm-1.648 7.579c-.044.629-.095 1.254-.095 1.895 0 .64.051 1.265.095 1.894h52.307c.043-.629.096-1.254.096-1.894 0-.64-.053-1.266-.096-1.895zm.52 7.579c.28 1.305.667 2.565 1.128 3.79h49.011a26.655 26.655 0 0 0 1.129-3.79h-51.27z" fill="#fff" opacity=".8"/><path d="M35.75 5C21.208 5 9.5 16.83 9.5 31.527c0 .104.01.205.015.307C9.85 17.437 21.42 5.948 35.75 5.948c14.333 0 25.903 11.495 26.234 25.896.006-.106.016-.21.016-.318C62 16.83 50.292 5 35.75 5z" fill="#fff" opacity=".1"/></g></svg>