<svg width="64" height="64" xmlns="http://www.w3.org/2000/svg"><g transform="matrix(1.1231 0 0 1.0526 -4.939 -1042.6)"><path d="M31.959 993.36c-5.37 0-10 4.995-10 11.2 0 14-8 15.4-8 25.2 0 10.824 8.059 19.6 18 19.6s18-8.775 18-19.6c0-9.8-8-11.2-8-25.2 0-6.205-4.63-11.2-10-11.2z" opacity=".2"/><path d="M31.959 992.36c-5.37 0-10 4.995-10 11.2 0 14-8 15.4-8 25.2 0 10.824 8.059 19.6 18 19.6s18-8.775 18-19.6c0-9.8-8-11.2-8-25.2 0-6.205-4.63-11.2-10-11.2z" fill="#4f4f4f"/><path d="M31.959 1009.4c-3.58 0-6 3.033-6 6.8 0 8.5-6 9.35-6 15.3 0 6.572 5.373 11.9 12 11.9s12-5.328 12-11.9c0-5.95-6-6.8-6-15.3 0-3.767-2.42-6.8-6-6.8z" opacity=".1"/><path d="M31.959 1008.4c-3.58 0-5.959 3.033-5.959 6.8 0 8.5-6.04 9.35-6.04 15.3 0 6.572 5.372 11.9 12 11.9s12-5.328 12-11.9c0-5.95-5.96-6.8-5.96-15.3 0-3.767-2.461-6.8-6.04-6.8z" fill="#fff"/><path d="M22.996 1049.3c-.603-.096-1.136-.275-2.303-.78-1.739-.75-2.55-.993-5.731-1.72-1.587-.361-2.179-.522-3.556-.968a60.203 60.203 0 0 0-1.484-.46c-.856-.245-1.083-.341-1.396-.588-.428-.337-.627-.856-.55-1.435.048-.37.178-.727.535-1.474.478-1 1.663-1.36 1.736-2.342.043-.58.007-1.23-.14-2.585-.086-.802-.106-1.097-.107-1.607-.002-.554.005-.168.062-.38.214-.793.377-1.25 1.135-1.447.22-.058-.24-.066.79-.086.64-.02 1.012-.036 1.094-.056.444-.102.767-.268 1.069-.555.287-.274.483-1.753.858-2.42.583-1.027 1.733-1.017 2.673-1.055.266.055.354.091.646.26.294.168.377.237.632.508.642.685.949 1.107 2.39 3.29 1.142 1.73 1.49 2.283 1.951 3.094.502.885 1.405 2.304 1.74 2.732.057.074.405.515.773.981.368.468.705.904.748.972.692.964 1.177 2.072 1.35 3.18.058.386.06.451.027.893-.04.56-.077.8-.137.923a4.15 4.15 0 0 0-.12.297c-.528 1.473-1.846 2.578-3.372 2.83a5.336 5.336 0 0 1-1.313 0z" opacity=".2"/><path d="M22.996 1048.3c-.603-.096-1.136-.275-2.303-.78-1.739-.75-2.55-.993-5.731-1.72-1.587-.361-2.179-.522-3.556-.968a60.203 60.203 0 0 0-1.484-.46c-.856-.245-1.083-.341-1.396-.588-.428-.337-.627-.856-.55-1.435.048-.37.178-.727.535-1.474.478-1 1.663-1.36 1.736-2.342.043-.58.007-1.23-.14-2.585-.086-.802-.106-1.097-.107-1.607-.025-.751.479-1.803 1.197-1.827.22-.058 0 0 .79-.086.64-.02 1.012-.036 1.094-.056.444-.102.767-.268 1.069-.555.287-.274.483-1.753.858-2.42.583-1.027 1.733-1.017 2.673-1.055.266.056.354.092.646.26.294.168.377.237.632.509.642.684.949 1.106 2.39 3.288 1.142 1.73 1.49 2.284 1.951 3.096.501.884 1.405 2.303 1.74 2.731.057.074.405.515.773.981.368.468.705.904.748.972.692.964 1.177 2.072 1.35 3.18.058.386.06.451.027.893-.04.56-.077.8-.137.923a4.15 4.15 0 0 0-.12.297c-.528 1.473-1.846 2.578-3.372 2.83a5.336 5.336 0 0 1-1.313 0z" fill="#eab108"/><path d="M46.382 1048.7c.46-.323.828-.686 1.587-1.569 1.13-1.315 1.101-1.842 3.439-3.726 1.166-.94 1.59-1.31 2.548-2.232.348-.336.816-.775 1.04-.977.607-.547.756-.717.913-1.045.215-.447.165-.948-.138-1.386-.195-.28-.45-.516-1.056-.976-.811-.615-1.043-1.143-1.511-1.91-.276-.45.084-1.592-.357-2.749-.26-.684-.366-.932-.577-1.345-.229-.45-.276-.526-.41-.674-.507-.555-1.07-.742-1.78-.594-.206.044-.326.094-1.189.497-.537.25-1.02.463-1.095.481-.41.1-.748.094-1.117-.02-.352-.104-.63.628-1.217.24-.402-.262-.833-.59-1.142-.676-.428-.118-.427-.118-.828-.074-.385.048-.67.158-.983.403-.198.154-.256.22-.428.474-.173.257-.214.345-.313.67-.25.815-.328 1.281-.618 3.635-.229 1.866-.289 2.456-.334 3.301-.049.92-.21 2.437-.31 2.92-.016.083-.122.582-.233 1.11-.112.528-.21 1.019-.218 1.09-.173 1.063-.116 2.158.2 3.125.112.336.138.39.348.735.267.437.396.617.497.691.04.03.141.116.223.192a4.135 4.135 0 0 0 3.971.917 5.046 5.046 0 0 0 1.089-.534z" opacity=".2"/><path d="M46.382 1047.7c.46-.323.828-.686 1.587-1.569 1.13-1.315 1.101-1.842 3.439-3.726 1.166-.94 1.59-1.31 2.548-2.232.348-.336.816-.775 1.04-.977.607-.547.756-.717.913-1.045.215-.447.165-.948-.138-1.386-.195-.28-.45-.516-1.056-.976-.811-.614-1.143-1.143-1.611-1.91-.276-.45.084-1.592-.356-2.749-.261-.684-.267-.932-.478-1.345-.229-.45-.275-.526-.41-.673-.507-.555-1.07-.743-1.78-.594-.205.044-.326.094-1.189.496-.537.25-1.02.463-1.095.482-.41.1-.748.093-1.117-.02-.352-.105-.63.627-1.217.24-.402-.263-.833-.592-1.142-.677-.428-.118-.427-.118-.827-.074-.386.048-.67.158-.984.403-.198.154-.256.22-.428.475-.173.256-.214.344-.313.668-.249.816-.328 1.282-.618 3.636-.229 1.866-.289 2.456-.334 3.301-.049.92-.21 2.437-.31 2.921-.016.082-.122.581-.233 1.109-.112.528-.21 1.019-.218 1.091-.173 1.063-.116 2.157.2 3.125.112.336.138.39.348.734.267.437.396.617.498.691.04.03.14.116.222.192a4.136 4.136 0 0 0 3.971.917 5.046 5.046 0 0 0 1.089-.534z" fill="#eab108"/><circle cx="27.959" cy="1003.4" r="4" opacity=".1"/><circle cx="27.959" cy="1002.4" r="4" fill="#fff"/><circle cx="27.959" cy="1002.4" r="2" fill="#323232"/><path d="M37.959 1008.4c0 3.866-2.686 7-6 7s-6-3.134-6-7z" opacity=".1"/><path d="M37.959 1007.6c0 3.866-2.686 6.8-6 6.8s-6-2.934-6-6.8z" fill="#f77d00"/><circle cx="35.959" cy="1003.4" r="4" opacity=".1"/><circle cx="35.959" cy="1002.4" r="4" fill="#fff"/><circle cx="35.959" cy="1002.4" r="2" fill="#323232"/><path d="M37.959 1007.7c0 .667-2.686 4.667-6 4.667s-6-4-6-4.667c0-1.841 2.686-3.333 6-3.333s6 1.492 6 3.333z" fill="#eab108"/><path d="M50.588 1028.422c-.16-.005-.33.01-.508.047-.206.044-.327.093-1.19.496-.537.25-1.02.464-1.095.482-.41.1-.746.095-1.115-.02-.352-.103-.632.628-1.219.241-.402-.263-.832-.592-1.14-.678-.43-.118-.428-.118-.829-.074-.385.048-.668.16-.982.404-.198.154-.256.22-.428.475-.173.257-.215.344-.314.668-.25.816-.328 1.283-.618 3.637-.229 1.866-.289 2.456-.334 3.3-.048.92-.21 2.437-.31 2.92-.017.082-.12.582-.232 1.11-.112.528-.211 1.018-.22 1.09a7.206 7.206 0 0 0-.071 1.677 7.4 7.4 0 0 1 .072-.677c.008-.072.107-.562.219-1.09l.232-1.11c.1-.483.262-2.001.31-2.922.045-.844.105-1.434.334-3.3.29-2.354.369-2.82.618-3.635.099-.324.141-.413.314-.67.172-.255.23-.32.428-.475.314-.244.597-.354.982-.402.4-.044.4-.044.828.074.309.085.74.413 1.141.676.587.387.867-.344 1.219-.24a1.97 1.97 0 0 0 1.115.021c.076-.018.558-.233 1.096-.482.862-.403.983-.452 1.19-.496.71-.149 1.272.038 1.778.593.135.148.182.226.41.674.211.414.219.66.48 1.344.44 1.157.079 2.299.355 2.75.468.767.8 1.296 1.61 1.91.607.46.863.696 1.058.977.069.1.12.203.164.308.175-.427.122-.895-.164-1.308-.195-.28-.45-.517-1.057-.977-.81-.615-1.143-1.143-1.611-1.91-.276-.451.085-1.59-.356-2.748-.26-.684-.268-.932-.478-1.346-.229-.448-.276-.526-.41-.673-.38-.417-.79-.625-1.272-.641z" fill="#fff" opacity=".2"/><path d="M46.861 1034.5c-2.303 0-2.32-1.914-2.78-4.17-.512-2.512-.84-3.964 3.17-4.172 3.647-1.71 4.009 8.208-.39 8.342z" fill="#4f4f4f"/><path d="M17.68 1028.36c-.94.038-2.089.028-2.672 1.057-.374.666-.57 2.146-.857 2.42-.302.287-.627.452-1.07.554-.083.02-.453.035-1.094.055-.79.086-.57.028-.79.086-.718.024-1.22 1.077-1.197 1.828 0 .208.033.47.043.656.104-.694.54-1.463 1.154-1.484.22-.058 0 0 .79-.086.64-.02 1.011-.037 1.093-.057.444-.102.77-.268 1.07-.555.288-.273.483-1.751.858-2.418.583-1.028 1.733-1.018 2.672-1.056.266.056.355.09.646.26.294.168.378.238.633.51.643.684.948 1.104 2.389 3.287 1.142 1.73 1.49 2.284 1.951 3.095.502.885 1.407 2.304 1.742 2.733.057.074.404.514.772.98.368.468.705.904.748.97.691.965 1.177 2.075 1.35 3.182.005.037.005.05.01.08.005-.07.01-.103.017-.187.032-.442.03-.507-.027-.893-.173-1.107-.659-2.215-1.35-3.18-.043-.066-.38-.505-.748-.972-.368-.467-.715-.906-.772-.98-.335-.429-1.24-1.846-1.742-2.73-.46-.813-.809-1.366-1.951-3.097-1.44-2.182-1.746-2.605-2.389-3.289-.255-.272-.339-.34-.633-.508-.291-.168-.38-.205-.646-.261zm-7.434 10.168v.023c-.072.984-1.257 1.343-1.734 2.342-.357.748-.488 1.104-.537 1.475-.035.261-.005.508.068.734.072-.299.191-.628.469-1.209.477-1 1.662-1.358 1.734-2.342.022-.293.023-.61 0-1.023z" fill="#fff" opacity=".2"/><path d="M31.959 992.36c-5.37 0-10 4.994-10 11.199 0 14-8 15.401-8 25.201 0 .177.021.348.025.523.264-9.356 7.975-10.964 7.975-24.725 0-6.204 4.63-11.199 10-11.199s10 4.995 10 11.2c0 13.76 7.71 15.367 7.975 24.724.004-.175.025-.346.025-.523 0-9.8-8-11.201-8-25.201 0-6.205-4.63-11.199-10-11.199z" fill="#fff" opacity=".1"/></g></svg>