<svg xmlns="http://www.w3.org/2000/svg" width="141" height="141" fill="none">
  <g stroke="#EFEFEF" clip-path="url(#clip0)">
    <path fill="#772020" d="M70.5 140.5c38.66 0 70-31.34 70-70s-31.34-70-70-70-70 31.34-70 70 31.34 70 70 70z"/>
    <path fill="#A3A2A2" stroke-width="2" d="M136.047 73.857c0 36.548-29.069 66.143-64.888 66.143S6.27 110.405 6.27 73.857c0-36.547 29.069-66.143 64.888-66.143s64.888 29.596 64.888 66.143z"/>
    <path fill="#fff" d="M131.003 74.579c0 33.842-26.919 61.26-60.105 61.26-33.187 0-60.106-27.418-60.106-61.26 0-33.843 26.919-61.26 60.105-61.26 33.187 0 60.106 27.417 60.106 61.26z"/>
    <path d="M2.818 51.906l6.589 2.686M138.584 54.163l-5.271 2.686M33.341 11.782l3.953 5.372M111.089 13.732l-3.953 5.372M132.938 93.525l3.953-1.343M10.542 94.5H5.271"/>
    <path stroke-width="3" d="M23.517 119.174L3.751 142.003M120.119 119.174l19.766 22.829"/>
  </g>
  <defs>
    <clipPath id="clip0">
      <path fill="#fff" d="M0 0h141v141H0z"/>
    </clipPath>
  </defs>
</svg>
