<svg xmlns="http://www.w3.org/2000/svg" width="124" height="102" fill="none">
  <g clip-path="url(#clip0)">
    <path fill="#F8FD1F" stroke="#C1A200" d="M111.271 42.142c1.35 8.444-2.896 17.117-11.011 24.32-8.107 7.197-20.019 12.867-33.817 15.274-13.798 2.407-26.828 1.09-36.735-2.965-9.916-4.058-16.632-10.819-17.983-19.262-1.35-8.444 2.896-17.118 11.01-24.32 8.107-7.198 20.02-12.867 33.817-15.274 13.799-2.408 26.829-1.09 36.736 2.965 9.915 4.057 16.631 10.819 17.983 19.262z"/>
    <path fill="#F8FD1F" stroke="#C1A200" d="M74.28 43.928c.352 2.203-.749 4.52-2.969 6.491-2.213 1.965-5.483 3.526-9.289 4.19-3.805.664-7.384.297-10.088-.81-2.713-1.11-4.475-2.927-4.828-5.13-.352-2.202.748-4.52 2.968-6.49 2.213-1.965 5.483-3.526 9.29-4.19 3.805-.664 7.384-.297 10.088.809 2.713 1.11 4.475 2.928 4.827 5.13z"/>
    <path fill="#F8FD1F" stroke="#C1A200" d="M66.454 44.295c.117.731-.262 1.563-1.149 2.32-.877.75-2.186 1.362-3.72 1.63-1.536.268-2.964.133-4.027-.278-1.074-.416-1.692-1.073-1.809-1.804-.117-.731.263-1.563 1.15-2.32.876-.75 2.185-1.362 3.72-1.63 1.535-.268 2.964-.133 4.026.278 1.075.415 1.692 1.073 1.81 1.804z"/>
    <path fill="#777" fill-rule="evenodd" d="M61.385 42.137l-1.828-16.564-2.65.184 2.385 21.608 2.65-.185-.16-1.44 4.475-.595-.652-3.57-4.22.562z" clip-rule="evenodd"/>
  </g>
  <defs>
    <clipPath id="clip0">
      <path fill="#fff" d="M0 0h115v90H0z" transform="rotate(6.039 4.735 89.75)"/>
    </clipPath>
  </defs>
</svg>
