<svg xmlns="http://www.w3.org/2000/svg" width="85" height="85" fill="none">
  <path fill="#F8FD1F" stroke="#C1A200" stroke-width="2" d="M42.5 83.9881c22.9132 0 41.4881-18.5749 41.4881-41.4881 0-22.9132-18.5749-41.4881-41.4881-41.4881-22.9132 0-41.4881 18.5749-41.4881 41.4881 0 22.9132 18.5749 41.4881 41.4881 41.4881z"/>
  <path fill="#F8FD1F" stroke="#C1A200" d="M42.5 55.1488c6.9858 0 12.6488-5.6631 12.6488-12.6488S49.4858 29.8512 42.5 29.8512c-6.9857 0-12.6488 5.6631-12.6488 12.6488S35.5143 55.1488 42.5 55.1488z"/>
  <path fill="#000" stroke="#C1A200" d="M42.5 44.0179c.8383 0 1.5178-.6796 1.5178-1.5179s-.6795-1.5179-1.5178-1.5179-1.5179.6796-1.5179 1.5179.6796 1.5179 1.5179 1.5179z"/>
</svg>
