<svg xmlns="http://www.w3.org/2000/svg" width="80" height="80" fill="none">
  <g stroke="#C1A200" clip-path="url(#clip0)">
    <path fill="#F8FD1F" stroke-width="2" d="M40.0476 79.0476c21.5655 0 39.0476-17.4822 39.0476-39.0476 0-21.5654-17.4821-39.0476-39.0476-39.0476C18.4822.9524 1 18.4346 1 40c0 21.5654 17.4822 39.0476 39.0476 39.0476z"/>
    <path fill="#F8FD1F" d="M40 51.9048c6.5748 0 11.9047-5.33 11.9047-11.9048S46.5748 28.0952 40 28.0952c-6.5749 0-11.9048 5.33-11.9048 11.9048S33.4251 51.9048 40 51.9048z"/>
    <path fill="#000" d="M40 41.4286c.7889 0 1.4285-.6396 1.4285-1.4286 0-.789-.6396-1.4286-1.4285-1.4286-.789 0-1.4286.6396-1.4286 1.4286 0 .789.6396 1.4286 1.4286 1.4286z"/>
  </g>
  <defs>
    <clipPath id="clip0">
      <path fill="#fff" d="M0 0h80v80H0z"/>
    </clipPath>
  </defs>
</svg>
