<svg xmlns="http://www.w3.org/2000/svg" width="75" height="75" fill="none">
  <g stroke="#C1A200" clip-path="url(#clip0)">
    <path fill="#F8FD1F" stroke-width="2" d="M37.6071 74.1071c20.2176 0 36.6071-16.3896 36.6071-36.6071 0-20.2176-16.3895-36.6071-36.6071-36.6071C17.3896.8929 1 17.2824 1 37.5c0 20.2175 16.3896 36.6071 36.6071 36.6071z"/>
    <path fill="#F8FD1F" d="M37.6071 48.6607c6.1639 0 11.1607-4.9968 11.1607-11.1607S43.771 26.3392 37.6071 26.3392c-6.164 0-11.1608 4.9969-11.1608 11.1608s4.9968 11.1607 11.1608 11.1607z"/>
    <path fill="#000" d="M37.6071 38.8393c.7396 0 1.3393-.5997 1.3393-1.3393 0-.7397-.5997-1.3393-1.3393-1.3393-.7397 0-1.3393.5996-1.3393 1.3393 0 .7396.5996 1.3393 1.3393 1.3393z"/>
  </g>
  <defs>
    <clipPath id="clip0">
      <path fill="#fff" d="M0 0h75v75H0z"/>
    </clipPath>
  </defs>
</svg>
