<svg xmlns="http://www.w3.org/2000/svg" width="100" height="100" fill="none">
  <path fill="#F8FD1F" stroke="#C1A200" stroke-width="2" d="M49.8095 98.8095C76.7663 98.8095 98.619 76.9567 98.619 50c0-26.9568-21.8527-48.8095-48.8095-48.8095C22.8528 1.1905 1 23.0432 1 50c0 26.9567 21.8528 48.8095 48.8095 48.8095z"/>
  <path fill="#F8FD1F" stroke="#C1A200" d="M50 64.881c8.2185 0 14.8809-6.6625 14.8809-14.881S58.2185 35.119 50 35.119c-8.2186 0-14.881 6.6625-14.881 14.881S41.7814 64.881 50 64.881z"/>
  <path fill="#000" stroke="#C1A200" d="M49.9999 51.7857c.9863 0 1.7858-.7995 1.7858-1.7857 0-.9862-.7995-1.7857-1.7858-1.7857-.9862 0-1.7857.7995-1.7857 1.7857 0 .9862.7995 1.7857 1.7857 1.7857z"/>
</svg>
