<svg xmlns="http://www.w3.org/2000/svg" width="110" height="61" fill="none">
  <g clip-path="url(#clip0)">
    <path fill="#777" fill-rule="evenodd" d="M58.285 20.362l.418-15.993-3-.069-.68 26.096 2.999.07.159-6.105 4.744.192.175-3.996-4.815-.195z" clip-rule="evenodd"/>
    <mask id="a" width="107" height="29" x="2" y="25" maskUnits="userSpaceOnUse">
      <path fill="#fff" d="M108.553 46.34c-.036 5.743-16.528 7.844-53.038 6.744C15.43 51.876 2.57 44.775 2.607 39.034c.053-8.432 10.63-6.391 26.606-5.765 18.75.735 17.785-8.236 27.173-7.713 11.045.616 6.468 9.045 26.47 11.555 17.78 2.23 25.754.16 25.697 9.23z"/>
    </mask>
    <g mask="url(#a)">
      <path fill="#F8FD1F" d="M108.553 46.34c-.036 5.743-16.528 7.844-53.038 6.744C15.43 51.876 2.57 44.775 2.607 39.034c.053-8.432 10.63-6.391 26.606-5.765 18.75.735 17.785-8.236 27.173-7.713 11.045.616 6.468 9.045 26.47 11.555 17.78 2.23 25.754.16 25.697 9.23z"/>
      <path fill="#C1A200" d="M108.553 46.34l-1-.006 1 .007zm-53.038 6.744l-.03 1 .03-1zm.871-27.528l.056-.998-.056.998zM29.213 33.27l-.039 1 .04-1zm53.643 3.842l-.124.992.124-.992zm24.697 9.223c-.005.848-.589 1.8-2.59 2.73-1.98.922-5.062 1.673-9.378 2.222-8.608 1.095-21.793 1.348-40.04.798l-.06 2c18.262.55 31.579.302 40.353-.814 4.376-.557 7.705-1.339 9.969-2.392 2.242-1.043 3.733-2.507 3.746-4.531l-2-.013zm-52.008 5.75c-20.003-.602-33.132-2.675-41.223-5.277-4.049-1.302-6.775-2.718-8.468-4.1-1.69-1.381-2.254-2.642-2.247-3.667l-2-.013c-.012 1.846 1.02 3.626 2.982 5.229 1.962 1.602 4.949 3.113 9.12 4.455 8.352 2.686 21.695 4.767 41.776 5.372l.06-1.999zM3.607 39.04c.011-1.874.592-3.01 1.552-3.767 1.022-.806 2.616-1.297 4.88-1.523 2.245-.225 5.003-.179 8.24-.031 3.193.145 6.914.393 10.895.55l.079-2c-4.007-.156-7.6-.398-10.884-.548-3.242-.148-6.127-.202-8.53.039-2.384.239-4.443.78-5.918 1.943-1.538 1.212-2.3 2.982-2.314 5.324l2 .013zm25.567-4.772c9.58.376 14.227-1.738 17.673-3.932 3.418-2.176 5.192-4.02 9.484-3.781l.111-1.997c-5.097-.284-7.534 2.095-10.669 4.09-3.105 1.977-7.35 3.981-16.52 3.622l-.079 1.998zm27.157-7.713c2.614.146 4.228.745 5.5 1.557 1.34.854 2.304 1.924 3.757 3.25 1.419 1.295 3.155 2.674 5.836 3.883 2.67 1.204 6.235 2.222 11.308 2.858l.249-1.984c-4.93-.619-8.292-1.596-10.735-2.697-2.431-1.097-3.992-2.334-5.31-3.537-1.283-1.172-2.496-2.482-4.03-3.46-1.6-1.02-3.556-1.705-6.464-1.867l-.111 1.997zm26.4 11.548c4.472.561 8.327.852 11.569 1.112 3.263.263 5.856.493 7.885.924 2.033.433 3.332 1.036 4.138 1.92.785.862 1.243 2.147 1.23 4.275l2 .013c.015-2.406-.502-4.263-1.752-5.635-1.228-1.347-3.024-2.066-5.2-2.529-2.18-.463-4.91-.701-8.14-.961-3.253-.262-7.062-.549-11.48-1.103l-.25 1.984z"/>
      <path stroke="#C1A200" stroke-width="2" d="M3.31 38.8s26.818 5.073 52.207 6.33c25.39 1.258 52.227.207 52.227.207"/>
    </g>
  </g>
  <defs>
    <clipPath id="clip0">
      <path fill="#fff" d="M0 0h105v52H0z" transform="rotate(-4.935 104.806 4.516)"/>
    </clipPath>
  </defs>
</svg>
