<svg xmlns="http://www.w3.org/2000/svg" width="108" height="51" fill="none">
  <g clip-path="url(#clip0)">
    <path stroke="#EFEFEF" stroke-width="3" d="M53.5 36v4"/>
    <path fill="#F8FD1F" stroke="#C1A200" d="M.5 41.5c0-.204.133-.481.768-.782.623-.296 1.584-.537 2.89-.723 2.6-.37 6.397-.495 11.158-.495 4.224 0 9.184.099 14.704.208l2.107.042C38.494 39.875 45.54 40 53 40c6.757 0 13.242-.058 19.233-.112 7.249-.065 13.776-.124 19.195-.065 4.948.053 8.941.205 11.691.536 1.38.167 2.413.374 3.09.623.34.125.555.248.678.355.113.099.113.151.113.163 0 .53-.384 1.166-1.403 1.846-1 .668-2.506 1.303-4.48 1.85C97.173 46.287 91.472 47 84.5 47c-6.539 0-12.07.755-17.136 1.505l-1.174.175C61.576 49.368 57.34 50 53 50c-4.244 0-7.574-.604-11.276-1.276-.394-.071-.793-.144-1.198-.216C36.323 47.755 31.54 47 24.5 47c-7.475 0-13.555-.684-17.75-1.763-2.102-.54-3.701-1.173-4.763-1.848C.906 42.702.5 42.051.5 41.5zM1 34c0 .114.085.352.731.632.614.266 1.562.488 2.845.662 2.557.347 6.295.487 10.994.519 4.63.03 10.144-.045 16.331-.129C38.293 35.597 45.403 35.5 53 35.5c6.74 0 13.234.058 19.252.112 7.315.065 13.928.124 19.426.066 5.01-.054 9.066-.206 11.863-.537 1.404-.167 2.458-.374 3.149-.624.348-.125.569-.249.695-.357.116-.099.115-.15.115-.16 0-.517-.4-1.154-1.473-1.84-1.048-.671-2.618-1.307-4.657-1.854C97.3 29.213 91.471 28.5 84.5 28.5c-6.539 0-12.07-.755-17.136-1.505l-1.174-.175c-4.614-.688-8.85-1.32-13.19-1.32-4.244 0-7.574.604-11.276 1.276-.394.071-.793.144-1.198.216-4.203.753-8.985 1.508-16.026 1.508-7.476 0-13.429.685-17.497 1.762-2.038.54-3.572 1.171-4.586 1.844C1.39 32.787 1 33.438 1 34z"/>
    <path fill="#EFEFEF" fill-rule="evenodd" d="M55 21V0h-3v25h3v-2h7v-2h-7z" clip-rule="evenodd"/>
  </g>
  <defs>
    <clipPath id="clip0">
      <path fill="#fff" d="M0 0h108v51H0z"/>
    </clipPath>
  </defs>
</svg>
