<svg xmlns="http://www.w3.org/2000/svg" width="140" height="110" fill="none">
  <path fill="#F8FD1F" stroke="#C1A200" d="M128.898 38.103c2.716 10.089-1.314 21.178-10.215 30.976-8.893 9.79-22.587 18.212-38.984 22.913-16.396 4.7-32.34 4.773-44.852 1.12-12.524-3.657-21.521-11.011-24.238-21.1-2.717-10.089 1.314-21.178 10.214-30.976 8.893-9.79 22.588-18.213 38.984-22.913 16.396-4.7 32.34-4.773 44.853-1.12 12.523 3.657 21.521 11.011 24.238 21.1z"/>
  <path fill="#F8FD1F" stroke="#C1A200" d="M84.088 45.058c.709 2.632-.327 5.59-2.762 8.27-2.427 2.673-6.186 4.992-10.709 6.288-4.522 1.297-8.902 1.31-12.317.314-3.427-1-5.793-2.984-6.502-5.615-.708-2.632.327-5.59 2.762-8.27 2.428-2.673 6.187-4.992 10.71-6.288 4.522-1.297 8.901-1.31 12.317-.314 3.426 1 5.792 2.983 6.501 5.615z"/>
  <path fill="#F8FD1F" stroke="#C1A200" d="M74.662 46.51c.235.874-.118 1.933-1.094 2.968-.966 1.024-2.472 1.936-4.296 2.46-1.824.522-3.57.542-4.91.18-1.354-.368-2.186-1.088-2.42-1.961-.236-.874.117-1.933 1.093-2.969.966-1.023 2.472-1.936 4.296-2.459 1.824-.522 3.57-.543 4.91-.18 1.353.368 2.185 1.088 2.42 1.961z"/>
  <path fill="#777" fill-rule="evenodd" d="M68.248 44.538l-4.335-19.897-3.183.565 5.654 25.957 3.184-.566-.377-1.73 5.34-1.3-1.246-4.253-5.037 1.224z" clip-rule="evenodd"/>
</svg>
