<svg xmlns="http://www.w3.org/2000/svg" width="45" height="45" fill="none">
  <path fill="#fff" d="M35.625 0H9.375C4.19733 0 0 4.19733 0 9.375v26.25C0 40.8027 4.19733 45 9.375 45h26.25C40.8027 45 45 40.8027 45 35.625V9.375C45 4.19733 40.8027 0 35.625 0z"/>
  <path stroke="#000" stroke-width="3" d="M9.97162 28.3167c3.21248 0 5.81668-2.6042 5.81668-5.8167s-2.6042-5.8167-5.81668-5.8167c-3.21254 0-5.81679 2.6042-5.81679 5.8167s2.60425 5.8167 5.81679 5.8167zM35.0284 40.8452c3.2125 0 5.8168-2.6043 5.8168-5.8168s-2.6043-5.8167-5.8168-5.8167-5.8167 2.6042-5.8167 5.8167 2.6042 5.8168 5.8167 5.8168zM35.0284 15.7883c3.2125 0 5.8168-2.6042 5.8168-5.81668 0-3.21254-2.6043-5.81679-5.8168-5.81679s-5.8167 2.60425-5.8167 5.81679c0 3.21248 2.6042 5.81668 5.8167 5.81668z"/>
  <path stroke="#000" stroke-width="4" d="M29.6766 33.0088l-14.3183-8.054M29.6766 11.9912l-14.3183 8.054"/>
</svg>
