<svg xmlns="http://www.w3.org/2000/svg" width="100" height="73" fill="none">
  <g clip-path="url(#clip0)">
    <path fill="#772020" d="M53.061 57.255l19.898-1.218 16.837-6.7 8.673-7.918-1.53 15.836-2.041 3.655-4.082 3.654-8.673 4.264-14.796 3.046-16.327.609-11.734-2.437-10.715-3.045-6.122-2.437-7.143-3.654-5.102-3.655-4.592-4.264-3.571-5.481-1.53-4.873L2.55 26.19l7.143 14.01L27.55 51.163l25.51 6.091z"/>
    <path fill="#EFEFEF" fill-rule="evenodd" d="M2.093 22.82L.068 42.307l-.043.001.018.231-.043.419.088.015c.429 3.59 2.244 6.99 4.985 10.105 2.909 3.307 6.882 6.319 11.425 8.938 9.085 5.237 20.526 8.948 30.525 10.299 10.001 1.35 21.967.676 31.71-1.943 4.87-1.309 9.211-3.11 12.477-5.41 3.264-2.297 5.499-5.123 6.05-8.487l-.022-.005 2.05-17.103a16.22 16.22 0 0 0 .668-3.572C101.087 20.293 80.086 5.095 53.05 1.85 26.719-1.311 4.375 8.028 2.18 22.836l-.087-.015zm.352 6.262l-1.4 13.472c.323 3.443 2.034 6.764 4.769 9.872 2.811 3.196 6.684 6.141 11.164 8.724a74.394 74.394 0 0 0 7.224 3.634l1.83-12.916C13.395 46.328 4.48 37.97 2.445 29.082zM26.98 52.276l-1.83 12.917c7.139 3.03 14.925 5.175 21.98 6.128 7.488 1.012 16.104.872 24.022-.382l.954-13.461c-6.988 1.259-14.873 1.5-23.151.507-7.99-.96-15.454-2.963-21.975-5.709zm46.14 5.01l-.955 13.486a69.75 69.75 0 0 0 6.285-1.369c4.806-1.291 9.03-3.055 12.172-5.266 3.109-2.189 5.115-4.782 5.636-7.754l-.013-.002 1.646-13.735c-3.919 7.084-13.006 12.325-24.77 14.64z" clip-rule="evenodd"/>
    <path fill="#fff" stroke="#EFEFEF" stroke-width="2" d="M95.262 34.294c-.426 6.558-5.667 12.085-14.035 15.657-8.348 3.563-19.697 5.121-32.062 3.799-12.365-1.323-23.356-5.27-31.13-10.558-7.79-5.3-12.246-11.864-11.82-18.422.426-6.558 5.668-12.086 14.035-15.657C28.6 5.55 39.947 3.992 52.312 5.314c12.365 1.322 23.356 5.27 31.13 10.557 7.79 5.3 12.246 11.865 11.82 18.423z"/>
  </g>
  <defs>
    <clipPath id="clip0">
      <path fill="#fff" d="M0 0h100v73H0z"/>
    </clipPath>
  </defs>
</svg>
