<svg xmlns="http://www.w3.org/2000/svg" width="80" height="86" fill="none">
  <mask id="a" width="80" height="87" x="0" y="0" maskUnits="userSpaceOnUse">
    <path fill="#fff" fill-rule="evenodd" d="M39.639 86c21.54 0 39-12.984 39-29 0-1.282.132-3.13.291-5.351.44-6.144 1.084-15.153-.294-22.995C78.386 12.797 61.023 0 39.64 0 18.22 0 .834 12.84.641 28.732-.342 34.85.015 41.98.34 48.486.495 51.514.64 54.407.64 57c0 16.016 17.46 29 39 29z" clip-rule="evenodd"/>
  </mask>
  <g mask="url(#a)">
    <path fill="#772020" fill-rule="evenodd" d="M39.639 86c21.54 0 39-12.984 39-29 0-1.282.132-3.13.291-5.351.44-6.144 1.084-15.153-.294-22.995C78.386 12.797 61.023 0 39.64 0 18.22 0 .834 12.84.641 28.732-.342 34.85.015 41.98.34 48.486.495 51.514.64 54.407.64 57c0 16.016 17.46 29 39 29z" clip-rule="evenodd"/>
    <path fill="#C4C4C4" d="M78.93 51.649l-.997-.071.997.07zm-.294-22.995l-1 .015.002.08.013.078.985-.173zm-77.995.078l.987.159.012-.073v-.074l-1-.012zm-.3 19.754l-.998.05.999-.05zM77.64 57c0 7.62-4.15 14.596-11.02 19.704C59.751 81.81 50.215 85 39.64 85v2c10.963 0 20.927-3.303 28.174-8.691C75.059 72.92 79.639 65.397 79.639 57h-2zm.294-5.422c-.158 2.205-.294 4.095-.294 5.422h2c0-1.237.128-3.041.289-5.28l-1.995-.142zm-.282-22.751c1.353 7.7.723 16.584.282 22.75l1.995.143c.438-6.121 1.096-15.255-.307-23.24l-1.97.347zM39.64 1c10.5 0 19.974 3.143 26.831 8.186 6.858 5.044 11.048 11.94 11.166 19.483l2-.031c-.13-8.313-4.748-15.744-11.98-21.063C60.421 2.255 50.522-1 39.638-1v2zM1.641 28.744c.091-7.56 4.272-14.475 11.133-19.533C19.634 4.153 29.122 1 39.639 1v-2C28.737-1 18.823 2.266 11.587 7.601 4.35 12.936-.258 20.388-.36 28.72l2 .024zm-.3 19.691c-.328-6.533-.676-13.552.287-19.544l-1.975-.317c-1.003 6.24-.635 13.482-.31 19.962l1.998-.1zM1.639 57c0-2.623-.147-5.543-.298-8.565l-1.998.1c.152 3.036.296 5.902.296 8.465h2zm38 28c-10.576 0-20.112-3.189-26.98-8.296C5.788 71.596 1.639 64.619 1.639 57h-2c0 8.397 4.58 15.92 11.826 21.309C18.712 83.697 28.676 87 39.64 87v-2z"/>
    <path fill="#fff" stroke="#C4C4C4" stroke-width="2" d="M74.639 28c0 6.778-3.802 13.004-10.13 17.574C58.183 50.144 49.393 53 39.64 53c-9.754 0-18.544-2.857-24.87-7.426C8.44 41.004 4.639 34.778 4.639 28c0-6.778 3.802-13.004 10.13-17.574C21.095 5.857 29.885 3 39.639 3c9.754 0 18.544 2.857 24.87 7.426C70.837 14.996 74.64 21.222 74.64 28z"/>
    <path stroke="#C4C4C4" d="M10.138 42.031l-2 32M28.138 52.031l-2 32M53.14 51.031l2 32M71.138 38.969l2 32"/>
  </g>
</svg>
