<svg xmlns="http://www.w3.org/2000/svg" width="86" height="94" fill="none">
  <mask id="a" width="86" height="94" x="0" y="0" maskUnits="userSpaceOnUse">
    <path fill="#fff" fill-rule="evenodd" d="M42.896 93.066c23.308 0 42.204-14.051 42.204-31.383 0-1.387.143-3.386.315-5.79.475-6.65 1.173-16.398-.318-24.885C84.827 13.848 66.037 0 42.896 0 19.716 0 .902 13.894.693 31.093-.37 37.712.017 45.428.37 52.469c.164 3.277.321 6.408.321 9.214 0 17.332 18.896 31.383 42.205 31.383z" clip-rule="evenodd"/>
  </mask>
  <g mask="url(#a)">
    <path fill="#772020" fill-rule="evenodd" d="M42.896 93.066c23.308 0 42.204-14.051 42.204-31.383 0-1.387.143-3.386.315-5.79.475-6.65 1.173-16.398-.318-24.885C84.827 13.848 66.037 0 42.896 0 19.716 0 .902 13.894.693 31.093-.37 37.712.017 45.428.37 52.469c.164 3.277.321 6.408.321 9.214 0 17.332 18.896 31.383 42.205 31.383z" clip-rule="evenodd"/>
    <path fill="#C4C4C4" d="M85.415 55.892l-.998-.071.998.071zm-.318-24.884l-1 .016.001.079.014.078.985-.173zm-84.404.085l.988.158.011-.072.001-.074-1-.012zM.37 52.469l-.999.05.999-.05zm83.73 9.214c0 8.277-4.51 15.85-11.958 21.388-7.449 5.539-17.785 8.995-29.246 8.995v2c11.847 0 22.613-3.57 30.44-9.39C81.161 78.856 86.1 70.738 86.1 61.683h-2zm.317-5.862c-.17 2.388-.317 4.43-.317 5.862h2c0-1.343.139-3.298.312-5.72l-1.995-.142zm-.305-24.64c1.466 8.345.783 17.969.305 24.64l1.995.143c.474-6.627 1.186-16.5-.33-25.13l-1.97.347zM42.896 1C54.274 1 64.544 4.406 71.98 9.875c7.437 5.469 11.988 12.953 12.117 21.149l2-.032c-.141-8.964-5.12-16.984-12.932-22.728C65.353 2.518 54.658-1 42.895-1v2zM1.693 31.105c.1-8.214 4.642-15.718 12.081-21.203C21.214 4.417 31.5 1 42.896 1v-2C31.114-1 20.403 2.53 12.587 8.292 4.773 14.054-.197 22.096-.307 31.081l2 .024zM1.37 52.419C1.014 45.35.637 37.747 1.68 31.25l-1.975-.317C-1.378 37.677-.981 45.505-.63 52.52l1.998-.1zm.322 9.264c0-2.836-.158-5.993-.322-9.264l-1.998.1c.165 3.284.32 6.388.32 9.164h2zm41.205 30.383c-11.461 0-21.798-3.456-29.247-8.995C6.201 77.533 1.691 69.96 1.691 61.683h-2c0 9.055 4.939 17.174 12.765 22.993 7.826 5.82 18.592 9.39 30.44 9.39v-2z"/>
    <path fill="#fff" stroke="#C4C4C4" stroke-width="2" d="M80.853 30.3c0 7.368-4.133 14.128-10.996 19.085-6.861 4.956-16.39 8.052-26.961 8.052-10.572 0-20.1-3.096-26.962-8.052C9.07 44.428 4.938 37.668 4.938 30.3c0-7.367 4.133-14.128 10.996-19.084 6.861-4.956 16.39-8.052 26.962-8.052 10.57 0 20.1 3.096 26.961 8.052C76.72 16.172 80.853 22.933 80.853 30.3z"/>
    <path stroke="#C4C4C4" d="M10.93 45.482L8.766 80.11M30.409 56.303l-2.165 34.63M57.547 55.221l2.164 34.63M77 40l3 36"/>
  </g>
</svg>
